<svg xmlns="http://www.w3.org/2000/svg" xmlns:xlink="http://www.w3.org/1999/xlink" width="1343" height="515.98" viewBox="0 0 1343 515.98"><defs><clipPath id="clip-path"><rect id="Rect&#xE1;ngulo_186" data-name="Rect&#xE1;ngulo 186" width="1290" height="477.951" fill="none" stroke="rgba(255,255,255,0.35)" stroke-width="1"></rect></clipPath><clipPath id="clip-path-2"><path id="Trazado_4215" data-name="Trazado 4215" d="M1.5,469.038h0ZM1287.781,30.308h0v0M670.366,63.544,654.535,79.5l-18.47,2.659-17.15-31.908L601.764,160.6,585.933,341.407l-18.47-14.624-14.512,7.977-18.47,6.647-17.15-3.988-18.47-7.977-15.831,77.11-18.47,58.5h-17.15l-34.3-99.712L395.96,345.4l-17.15,6.647-17.15-5.318h-17.15l-17.15-17.283-15.831,9.306-17.15-2.659-18.47-17.283-17.15-33.237-35.62-31.908L207.3,233.718l-15.831,19.942L179.6,254.99l-22.427,6.647L138.7,276.262l-15.831,21.272-18.47,2.659-17.15,15.954L71.421,371.985,35.8,469.038H1286.462s1.3-436.019,1.319-438.73l-17.15,31.906-34.3,29.249-17.15-19.942-17.15,50.521-17.151,3.988-18.47-71.792-17.151-1.329-15.831,14.624-18.47,3.988-15.831-3.988L1081.976,138l-17.15,15.954-18.47-124.972L1030.525,47.59l-17.15,2.659-17.15-17.283-17.15,17.283L960.6,99.44l-17.15-6.647L926.3,47.59,910.472,75.509l-15.831,5.318L874.852,88.8,857.7,62.214,843.189,90.133l-18.47,18.613L806.25,32.965,773.269,71.521l-17.15-1.329-15.831,25.26-18.47,17.283-17.15-17.283L687.516,21Z" transform="translate(-1.5 -21)" fill="none"></path></clipPath><linearGradient id="linear-gradient" x1="0.5" x2="0.5" y2="1" gradientUnits="objectBoundingBox"><stop offset="0" stop-color="#39b5cb"></stop><stop offset="1" stop-color="#2e72ff" stop-opacity="0.349"></stop></linearGradient><clipPath id="clip-path-3"><rect id="Rect&#xE1;ngulo_188" data-name="Rect&#xE1;ngulo 188" width="1290" height="477.951" fill="none"></rect></clipPath></defs><g id="stat04" transform="translate(-290 -11066.925)"><text id="_3.2K" data-name="$3.2K" transform="translate(290 11079.925)" fill="#fff" font-size="14" font-family="ProximaNova-Regular, Proxima Nova" opacity="0.5"><tspan x="0" y="0">$3.2K</tspan></text><text id="_2.4K" data-name="$2.4K" transform="translate(290 11198.905)" fill="#fff" font-size="14" font-family="ProximaNova-Regular, Proxima Nova" opacity="0.5"><tspan x="0" y="0">$2.4K</tspan></text><text id="_1.6K" data-name="$1.6K" transform="translate(290 11318.9)" fill="#fff" font-size="14" font-family="ProximaNova-Regular, Proxima Nova" opacity="0.5"><tspan x="0" y="0">$1.6K</tspan></text><text id="_800" data-name="$800" transform="translate(290 11435.905)" fill="#fff" font-size="14" font-family="ProximaNova-Regular, Proxima Nova" opacity="0.5"><tspan x="0" y="0">$800</tspan></text><text id="_0" data-name="$0" transform="translate(290 11557.877)" fill="#fff" font-size="14" font-family="ProximaNova-Regular, Proxima Nova" opacity="0.5"><tspan x="0" y="0">$0</tspan></text><text id="apr" transform="translate(341 11578.905)" fill="#fff" font-size="14" font-family="ProximaNova-Regular, Proxima Nova" opacity="0.5"><tspan x="-10.017" y="0">apr</tspan></text><text id="_4" data-name="4" transform="translate(385 11579.905)" fill="#fff" font-size="14" font-family="ProximaNova-Regular, Proxima Nova" opacity="0.5"><tspan x="-3.906" y="0">4</tspan></text><text id="_5" data-name="5" transform="translate(431 11579.905)" fill="#fff" font-size="14" font-family="ProximaNova-Regular, Proxima Nova" opacity="0.5"><tspan x="-4.13" y="0">5</tspan></text><text id="_6" data-name="6" transform="translate(476 11579.905)" fill="#fff" font-size="14" font-family="ProximaNova-Regular, Proxima Nova" opacity="0.5"><tspan x="-4.137" y="0">6</tspan></text><text id="_7" data-name="7" transform="translate(520 11579.905)" fill="#fff" font-size="14" font-family="ProximaNova-Regular, Proxima Nova" opacity="0.5"><tspan x="-3.605" y="0">7</tspan></text><text id="_8" data-name="8" transform="translate(565 11579.905)" fill="#fff" font-size="14" font-family="ProximaNova-Regular, Proxima Nova" opacity="0.5"><tspan x="-4.067" y="0">8</tspan></text><text id="_9" data-name="9" transform="translate(607 11579.905)" fill="#fff" font-size="14" font-family="ProximaNova-Regular, Proxima Nova" opacity="0.5"><tspan x="-4.137" y="0">9</tspan></text><text id="_10" data-name="10" transform="translate(652 11579.905)" fill="#fff" font-size="14" font-family="ProximaNova-Regular, Proxima Nova" opacity="0.5"><tspan x="-6.657" y="0">10</tspan></text><text id="_11" data-name="11" transform="translate(696 11579.905)" fill="#fff" font-size="14" font-family="ProximaNova-Regular, Proxima Nova" opacity="0.5"><tspan x="-4.746" y="0">11</tspan></text><text id="_12" data-name="12" transform="translate(741 11579.905)" fill="#fff" font-size="14" font-family="ProximaNova-Regular, Proxima Nova" opacity="0.5"><tspan x="-6.489" y="0">12</tspan></text><text id="_13" data-name="13" transform="translate(785 11579.905)" fill="#fff" font-size="14" font-family="ProximaNova-Regular, Proxima Nova" opacity="0.5"><tspan x="-6.272" y="0">13</tspan></text><text id="_14" data-name="14" transform="translate(829 11579.905)" fill="#fff" font-size="14" font-family="ProximaNova-Regular, Proxima Nova" opacity="0.5"><tspan x="-6.279" y="0">14</tspan></text><text id="_15" data-name="15" transform="translate(873 11579.905)" fill="#fff" font-size="14" font-family="ProximaNova-Regular, Proxima Nova" opacity="0.5"><tspan x="-6.503" y="0">15</tspan></text><text id="_16" data-name="16" transform="translate(918 11579.905)" fill="#fff" font-size="14" font-family="ProximaNova-Regular, Proxima Nova" opacity="0.5"><tspan x="-6.51" y="0">16</tspan></text><text id="_17" data-name="17" transform="translate(962 11579.905)" fill="#fff" font-size="14" font-family="ProximaNova-Regular, Proxima Nova" opacity="0.5"><tspan x="-5.978" y="0">17</tspan></text><text id="_18" data-name="18" transform="translate(1007 11579.905)" fill="#fff" font-size="14" font-family="ProximaNova-Regular, Proxima Nova" opacity="0.5"><tspan x="-6.44" y="0">18</tspan></text><text id="_19" data-name="19" transform="translate(1052 11579.905)" fill="#fff" font-size="14" font-family="ProximaNova-Regular, Proxima Nova" opacity="0.5"><tspan x="-6.51" y="0">19</tspan></text><text id="_20" data-name="20" transform="translate(1096 11579.905)" fill="#fff" font-size="14" font-family="ProximaNova-Regular, Proxima Nova" opacity="0.5"><tspan x="-8.4" y="0">20</tspan></text><text id="_21" data-name="21" transform="translate(1139 11579.905)" fill="#fff" font-size="14" font-family="ProximaNova-Regular, Proxima Nova" opacity="0.5"><tspan x="-6.489" y="0">21</tspan></text><text id="_22" data-name="22" transform="translate(1184 11579.905)" fill="#fff" font-size="14" font-family="ProximaNova-Regular, Proxima Nova" opacity="0.5"><tspan x="-8.232" y="0">22</tspan></text><text id="_23" data-name="23" transform="translate(1229 11579.905)" fill="#fff" font-size="14" font-family="ProximaNova-Regular, Proxima Nova" opacity="0.5"><tspan x="-8.015" y="0">23</tspan></text><text id="_24" data-name="24" transform="translate(1274 11579.905)" fill="#fff" font-size="14" font-family="ProximaNova-Regular, Proxima Nova" opacity="0.5"><tspan x="-8.022" y="0">24</tspan></text><text id="_25" data-name="25" transform="translate(1319 11579.905)" fill="#fff" font-size="14" font-family="ProximaNova-Regular, Proxima Nova" opacity="0.5"><tspan x="-8.246" y="0">25</tspan></text><text id="_26" data-name="26" transform="translate(1363 11579.905)" fill="#fff" font-size="14" font-family="ProximaNova-Regular, Proxima Nova" opacity="0.5"><tspan x="-8.253" y="0">26</tspan></text><text id="_27" data-name="27" transform="translate(1406 11579.905)" fill="#fff" font-size="14" font-family="ProximaNova-Regular, Proxima Nova" opacity="0.5"><tspan x="-7.721" y="0">27</tspan></text><text id="_28" data-name="28" transform="translate(1451 11579.905)" fill="#fff" font-size="14" font-family="ProximaNova-Regular, Proxima Nova" opacity="0.5"><tspan x="-8.183" y="0">28</tspan></text><text id="_29" data-name="29" transform="translate(1496 11579.905)" fill="#fff" font-size="14" font-family="ProximaNova-Regular, Proxima Nova" opacity="0.5"><tspan x="-8.253" y="0">29</tspan></text><text id="_30" data-name="30" transform="translate(1541 11579.905)" fill="#fff" font-size="14" font-family="ProximaNova-Regular, Proxima Nova" opacity="0.5"><tspan x="-8.183" y="0">30</tspan></text><text id="may" transform="translate(1586 11579.905)" fill="#fff" font-size="14" font-family="ProximaNova-Regular, Proxima Nova" opacity="0.5"><tspan x="-12.775" y="0">may</tspan></text><text id="_1" data-name="1" transform="translate(1630 11579.905)" fill="#fff" font-size="14" font-family="ProximaNova-Regular, Proxima Nova" opacity="0.5"><tspan x="-2.373" y="0">1</tspan></text><g id="Grupo_635" data-name="Grupo 635" transform="translate(10 936.146)"><g id="Grupo_625" data-name="Grupo 625" transform="translate(332 10139.779)"><line id="L&#xED;nea_87" data-name="L&#xED;nea 87" y2="477.952" transform="translate(0)" fill="none" stroke="rgba(255,255,255,0.35)" stroke-miterlimit="10" stroke-width="1" stroke-dasharray="5 5"></line><line id="L&#xED;nea_88" data-name="L&#xED;nea 88" y2="477.952" transform="translate(44)" fill="none" stroke="rgba(255,255,255,0.35)" stroke-miterlimit="10" stroke-width="1" stroke-dasharray="5 5"></line><line id="L&#xED;nea_89" data-name="L&#xED;nea 89" y2="477.952" transform="translate(89)" fill="none" stroke="rgba(255,255,255,0.35)" stroke-miterlimit="10" stroke-width="1" stroke-dasharray="5 5"></line><line id="L&#xED;nea_90" data-name="L&#xED;nea 90" y2="477.952" transform="translate(134)" fill="none" stroke="rgba(255,255,255,0.35)" stroke-miterlimit="10" stroke-width="1" stroke-dasharray="5 5"></line><line id="L&#xED;nea_91" data-name="L&#xED;nea 91" y2="477.952" transform="translate(179)" fill="none" stroke="rgba(255,255,255,0.35)" stroke-miterlimit="10" stroke-width="1" stroke-dasharray="5 5"></line><line id="L&#xED;nea_92" data-name="L&#xED;nea 92" y2="477.952" transform="translate(224)" fill="none" stroke="rgba(255,255,255,0.35)" stroke-miterlimit="10" stroke-width="1" stroke-dasharray="5 5"></line><line id="L&#xED;nea_93" data-name="L&#xED;nea 93" y2="477.952" transform="translate(265.629)" fill="none" stroke="rgba(255,255,255,0.35)" stroke-miterlimit="10" stroke-width="1" stroke-dasharray="5 5"></line><line id="L&#xED;nea_94" data-name="L&#xED;nea 94" y2="477.952" transform="translate(310.231)" fill="none" stroke="rgba(255,255,255,0.35)" stroke-miterlimit="10" stroke-width="1" stroke-dasharray="5 5"></line><line id="L&#xED;nea_95" data-name="L&#xED;nea 95" y2="477.952" transform="translate(354.833)" fill="none" stroke="rgba(255,255,255,0.35)" stroke-miterlimit="10" stroke-width="1" stroke-dasharray="5 5"></line><line id="L&#xED;nea_96" data-name="L&#xED;nea 96" y2="477.952" transform="translate(399.435)" fill="none" stroke="rgba(255,255,255,0.35)" stroke-miterlimit="10" stroke-width="1" stroke-dasharray="5 5"></line><line id="L&#xED;nea_97" data-name="L&#xED;nea 97" y2="477.952" transform="translate(444.037)" fill="none" stroke="rgba(255,255,255,0.35)" stroke-miterlimit="10" stroke-width="1" stroke-dasharray="5 5"></line><line id="L&#xED;nea_98" data-name="L&#xED;nea 98" y2="477.952" transform="translate(488.639)" fill="none" stroke="rgba(255,255,255,0.35)" stroke-miterlimit="10" stroke-width="1" stroke-dasharray="5 5"></line><line id="L&#xED;nea_99" data-name="L&#xED;nea 99" y2="477.952" transform="translate(532.25)" fill="none" stroke="rgba(255,255,255,0.35)" stroke-miterlimit="10" stroke-width="1" stroke-dasharray="5 5"></line><line id="L&#xED;nea_100" data-name="L&#xED;nea 100" y2="477.952" transform="translate(576.852)" fill="none" stroke="rgba(255,255,255,0.35)" stroke-miterlimit="10" stroke-width="1" stroke-dasharray="5 5"></line><line id="L&#xED;nea_102" data-name="L&#xED;nea 102" y2="477.952" transform="translate(621.453)" fill="none" stroke="rgba(255,255,255,0.35)" stroke-miterlimit="10" stroke-width="1" stroke-dasharray="5 5"></line><line id="L&#xED;nea_103" data-name="L&#xED;nea 103" y2="477.952" transform="translate(666.055)" fill="none" stroke="rgba(255,255,255,0.35)" stroke-miterlimit="10" stroke-width="1" stroke-dasharray="5 5"></line><line id="L&#xED;nea_104" data-name="L&#xED;nea 104" y2="477.952" transform="translate(710.657)" fill="none" stroke="rgba(255,255,255,0.35)" stroke-miterlimit="10" stroke-width="1" stroke-dasharray="5 5"></line><line id="L&#xED;nea_105" data-name="L&#xED;nea 105" y2="477.952" transform="translate(755.259)" fill="none" stroke="rgba(255,255,255,0.35)" stroke-miterlimit="10" stroke-width="1" stroke-dasharray="5 5"></line><line id="L&#xED;nea_106" data-name="L&#xED;nea 106" y2="477.952" transform="translate(798.87)" fill="none" stroke="rgba(255,255,255,0.35)" stroke-miterlimit="10" stroke-width="1" stroke-dasharray="5 5"></line><line id="L&#xED;nea_107" data-name="L&#xED;nea 107" y2="477.952" transform="translate(843.472)" fill="none" stroke="rgba(255,255,255,0.35)" stroke-miterlimit="10" stroke-width="1" stroke-dasharray="5 5"></line><line id="L&#xED;nea_108" data-name="L&#xED;nea 108" y2="477.952" transform="translate(888.074)" fill="none" stroke="rgba(255,255,255,0.35)" stroke-miterlimit="10" stroke-width="1" stroke-dasharray="5 5"></line><line id="L&#xED;nea_109" data-name="L&#xED;nea 109" y2="477.952" transform="translate(932.676)" fill="none" stroke="rgba(255,255,255,0.35)" stroke-miterlimit="10" stroke-width="1" stroke-dasharray="5 5"></line><line id="L&#xED;nea_110" data-name="L&#xED;nea 110" y2="477.952" transform="translate(977.278)" fill="none" stroke="rgba(255,255,255,0.35)" stroke-miterlimit="10" stroke-width="1" stroke-dasharray="5 5"></line><line id="L&#xED;nea_111" data-name="L&#xED;nea 111" y2="477.952" transform="translate(1021.88)" fill="none" stroke="rgba(255,255,255,0.35)" stroke-miterlimit="10" stroke-width="1" stroke-dasharray="5 5"></line><line id="L&#xED;nea_112" data-name="L&#xED;nea 112" y2="477.952" transform="translate(1063.5)" fill="none" stroke="rgba(255,255,255,0.35)" stroke-miterlimit="10" stroke-width="1" stroke-dasharray="5 5"></line><line id="L&#xED;nea_113" data-name="L&#xED;nea 113" y2="477.952" transform="translate(1108.5)" fill="none" stroke="rgba(255,255,255,0.35)" stroke-miterlimit="10" stroke-width="1" stroke-dasharray="5 5"></line><line id="L&#xED;nea_114" data-name="L&#xED;nea 114" y2="477.952" transform="translate(1153.5)" fill="none" stroke="rgba(255,255,255,0.35)" stroke-miterlimit="10" stroke-width="1" stroke-dasharray="5 5"></line><line id="L&#xED;nea_115" data-name="L&#xED;nea 115" y2="477.952" transform="translate(1198.5)" fill="none" stroke="rgba(255,255,255,0.35)" stroke-miterlimit="10" stroke-width="1" stroke-dasharray="5 5"></line><line id="L&#xED;nea_116" data-name="L&#xED;nea 116" y2="477.952" transform="translate(1243.5)" fill="none" stroke="rgba(255,255,255,0.35)" stroke-miterlimit="10" stroke-width="1" stroke-dasharray="5 5"></line><line id="L&#xED;nea_117" data-name="L&#xED;nea 117" y2="477.952" transform="translate(1288.5)" fill="none" stroke="rgba(255,255,255,0.35)" stroke-miterlimit="10" stroke-width="1" stroke-dasharray="5 5"></line></g><g id="Grupo_634" data-name="Grupo 634" transform="translate(332 10139.779)"><g id="Grupo_628" data-name="Grupo 628" transform="translate(0)"><g id="Grupo_627" data-name="Grupo 627" clip-path="url(#clip-path)"><line id="L&#xED;nea_118" data-name="L&#xED;nea 118" x1="1284.962" transform="translate(1.979 475.957)" fill="none" stroke="rgba(255,255,255,0.35)" stroke-width="1"></line><line id="L&#xED;nea_119" data-name="L&#xED;nea 119" x1="1284.962" transform="translate(1.979 357.134)" fill="none" stroke="rgba(255,255,255,0.35)" stroke-width="1"></line><line id="L&#xED;nea_120" data-name="L&#xED;nea 120" x1="1284.962" transform="translate(1.979 238.311)" fill="none" stroke="rgba(255,255,255,0.35)" stroke-width="1"></line><line id="L&#xED;nea_121" data-name="L&#xED;nea 121" x1="1284.962" transform="translate(1.979 119.488)" fill="none" stroke="rgba(255,255,255,0.35)" stroke-width="1"></line><line id="L&#xED;nea_122" data-name="L&#xED;nea 122" x1="1284.962" transform="translate(0 0.665)" fill="none" stroke="rgba(255,255,255,0.35)" stroke-width="1"></line></g></g><g id="Grupo_633" data-name="Grupo 633" transform="translate(0)"><g id="Grupo_630" data-name="Grupo 630" transform="translate(1.979 27.919)"><g id="Grupo_629" data-name="Grupo 629" clip-path="url(#clip-path-2)"><rect id="Rect&#xE1;ngulo_187" data-name="Rect&#xE1;ngulo 187" width="1287.6" height="449.367" transform="translate(-0.66 -0.665)" opacity="0.55" fill="url(#linear-gradient)"></rect></g></g><g id="Grupo_632" data-name="Grupo 632"><g id="Grupo_631" data-name="Grupo 631" clip-path="url(#clip-path-3)"><path id="Trazado_4216" data-name="Trazado 4216" d="M1.5,469.038H35.8l35.62-97.053,15.831-55.839,17.15-15.954,18.47-2.659L138.7,276.262l18.47-14.624L179.6,254.99l11.873-1.329L207.3,233.718l15.831,19.942,35.62,31.908,17.15,33.237,18.47,17.283,17.15,2.659,15.831-9.306,17.15,17.283h17.15l17.15,5.318,17.15-6.647,17.15,19.942,34.3,99.712h17.15l18.47-58.5,15.831-77.11,18.47,7.977,17.15,3.988,18.47-6.647,14.512-7.977,18.47,14.624L601.764,160.6l17.15-110.348,17.15,31.908,18.47-2.659,15.831-15.954L687.516,21l17.15,74.451,17.15,17.283,18.47-17.283,15.831-25.26,17.15,1.329L806.25,32.965l18.47,75.781,18.47-18.613L857.7,62.214l17.15,26.59,19.789-7.977,15.831-5.318L926.3,47.59l17.15,45.2L960.6,99.44l18.47-49.191,17.15-17.283,17.15,17.283,17.15-2.659,15.831-18.613,18.47,124.972L1081.976,138l17.151-70.463,15.831,3.988,18.47-3.988,15.831-14.624,17.151,1.329,18.47,71.792,17.151-3.988,17.15-50.521,17.15,19.942,34.3-29.249,17.15-31.908" transform="translate(0.479 6.919)" fill="none" stroke="#fff" stroke-linejoin="round" stroke-miterlimit="10" stroke-width="3"></path></g></g></g></g></g><g id="Grupo_639" data-name="Grupo 639" transform="translate(51 7227.146)"><circle id="Elipse_83" data-name="Elipse 83" cx="20" cy="20" r="20" transform="translate(291 4267)" fill="#79e8b3" opacity="0.2"></circle><circle id="Elipse_84" data-name="Elipse 84" cx="10" cy="10" r="10" transform="translate(301 4277)" fill="#79e8b3"></circle></g><g id="Grupo_640" data-name="Grupo 640" transform="translate(549 7103.146)"><circle id="Elipse_83-2" data-name="Elipse 83" cx="20" cy="20" r="20" transform="translate(291 4267)" fill="#feca00" opacity="0.2"></circle><circle id="Elipse_84-2" data-name="Elipse 84" cx="10" cy="10" r="10" transform="translate(301 4277)" fill="#feca00"></circle></g></g></svg>