<svg xmlns="http://www.w3.org/2000/svg" xmlns:xlink="http://www.w3.org/1999/xlink" width="353" height="515.98" viewBox="0 0 353 515.98"><defs><clipPath id="clip-path"><rect id="Rect&#xE1;ngulo_186" data-name="Rect&#xE1;ngulo 186" width="300" height="477.951" fill="none" stroke="rgba(255,255,255,0.35)" stroke-width="1"></rect></clipPath><clipPath id="clip-path-2"><path id="Trazado_4215" data-name="Trazado 4215" d="M1.5,469.038h0ZM300.635,30.308h0v0M157.05,63.544,153.369,79.5l-4.3,2.659-3.988-31.908L141.1,160.6l-3.682,180.811-4.3-14.624-3.375,7.977-4.3,6.647-3.988-3.988-4.3-7.977-3.682,77.11-4.3,58.5H105.2l-7.977-99.712L93.235,345.4l-3.988,6.647-3.988-5.318H81.269l-3.988-17.283L73.6,338.748l-3.988-2.659-4.3-17.283-3.988-33.237-8.284-31.908-3.682-19.942L45.68,253.661l-2.761,1.329L37.7,261.638l-4.3,14.624-3.682,21.272-4.3,2.659-3.988,15.954-3.682,55.839L9.477,469.038H300.328s.3-436.019.307-438.73l-3.988,31.906L288.67,91.463l-3.988-19.942-3.988,50.521L276.7,126.03l-4.3-71.792-3.988-1.329-3.682,14.624-4.3,3.988-3.682-3.988L252.774,138l-3.988,15.954-4.3-124.972L240.808,47.59l-3.988,2.659-3.988-17.283-3.988,17.283-4.3,49.191-3.988-6.647-3.988-45.2-3.682,27.919-3.682,5.318-4.6,7.977-3.988-26.59-3.375,27.919-4.3,18.613-4.3-75.781-7.67,38.555-3.988-1.329-3.682,25.26-4.3,17.283-3.988-17.283L161.039,21Z" transform="translate(-1.5 -21)" fill="none"></path></clipPath><linearGradient id="linear-gradient" x1="0.5" x2="0.5" y2="1" gradientUnits="objectBoundingBox"><stop offset="0" stop-color="#39b5cb"></stop><stop offset="1" stop-color="#2e72ff" stop-opacity="0.349"></stop></linearGradient><clipPath id="clip-path-3"><rect id="Rect&#xE1;ngulo_188" data-name="Rect&#xE1;ngulo 188" width="300" height="477.951" fill="none"></rect></clipPath></defs><g id="stat04mov" transform="translate(9044 3784.5)"><text id="_3.2K" data-name="$3.2K" transform="translate(-9044 -3771.5)" fill="#fff" font-size="14" font-family="ProximaNova-Regular, Proxima Nova" opacity="0.5"><tspan x="0" y="0">$3.2K</tspan></text><text id="_2.4K" data-name="$2.4K" transform="translate(-9044 -3652.52)" fill="#fff" font-size="14" font-family="ProximaNova-Regular, Proxima Nova" opacity="0.5"><tspan x="0" y="0">$2.4K</tspan></text><text id="_1.6K" data-name="$1.6K" transform="translate(-9044 -3532.524)" fill="#fff" font-size="14" font-family="ProximaNova-Regular, Proxima Nova" opacity="0.5"><tspan x="0" y="0">$1.6K</tspan></text><text id="_800" data-name="$800" transform="translate(-9044 -3415.52)" fill="#fff" font-size="14" font-family="ProximaNova-Regular, Proxima Nova" opacity="0.5"><tspan x="0" y="0">$800</tspan></text><text id="_0" data-name="$0" transform="translate(-9044 -3293.548)" fill="#fff" font-size="14" font-family="ProximaNova-Regular, Proxima Nova" opacity="0.5"><tspan x="0" y="0">$0</tspan></text><text id="apr" transform="translate(-8993 -3272.52)" fill="#fff" font-size="14" font-family="ProximaNova-Regular, Proxima Nova" opacity="0.5"><tspan x="-10.017" y="0">apr</tspan></text><text id="_1" data-name="1" transform="translate(-8694 -3271.52)" fill="#fff" font-size="14" font-family="ProximaNova-Regular, Proxima Nova" opacity="0.5"><tspan x="-2.373" y="0">1</tspan></text><text id="_24" data-name="24" transform="translate(-8794 -3271.52)" fill="#fff" font-size="14" font-family="ProximaNova-Regular, Proxima Nova" opacity="0.5"><tspan x="-8.022" y="0">24</tspan></text><text id="_13" data-name="13" transform="translate(-8893 -3271.52)" fill="#fff" font-size="14" font-family="ProximaNova-Regular, Proxima Nova" opacity="0.5"><tspan x="-6.272" y="0">13</tspan></text><g id="Grupo_708" data-name="Grupo 708"><line id="L&#xED;nea_87" data-name="L&#xED;nea 87" y2="477.952" transform="translate(-8991.5 -3775.5)" fill="none" stroke="rgba(255,255,255,0.35)" stroke-miterlimit="10" stroke-width="1" stroke-dasharray="5 5"></line><line id="L&#xED;nea_140" data-name="L&#xED;nea 140" y2="477.952" transform="translate(-8892.5 -3775.5)" fill="none" stroke="rgba(255,255,255,0.35)" stroke-miterlimit="10" stroke-width="1" stroke-dasharray="5 5"></line><line id="L&#xED;nea_141" data-name="L&#xED;nea 141" y2="477.952" transform="translate(-8792.5 -3775.5)" fill="none" stroke="rgba(255,255,255,0.35)" stroke-miterlimit="10" stroke-width="1" stroke-dasharray="5 5"></line><line id="L&#xED;nea_117" data-name="L&#xED;nea 117" y2="477.952" transform="translate(-8693.5 -3775.5)" fill="none" stroke="rgba(255,255,255,0.35)" stroke-miterlimit="10" stroke-width="1" stroke-dasharray="5 5"></line><g id="Grupo_707" data-name="Grupo 707" transform="translate(-8992 -3775.5)"><g id="Grupo_628" data-name="Grupo 628" transform="translate(0)"><g id="Grupo_627" data-name="Grupo 627" clip-path="url(#clip-path)"><line id="L&#xED;nea_118" data-name="L&#xED;nea 118" x1="298.828" transform="translate(0.46 475.957)" fill="none" stroke="rgba(255,255,255,0.35)" stroke-width="1"></line><line id="L&#xED;nea_119" data-name="L&#xED;nea 119" x1="298.828" transform="translate(0.46 357.134)" fill="none" stroke="rgba(255,255,255,0.35)" stroke-width="1"></line><line id="L&#xED;nea_120" data-name="L&#xED;nea 120" x1="298.828" transform="translate(0.46 238.311)" fill="none" stroke="rgba(255,255,255,0.35)" stroke-width="1"></line><line id="L&#xED;nea_121" data-name="L&#xED;nea 121" x1="298.828" transform="translate(0.46 119.488)" fill="none" stroke="rgba(255,255,255,0.35)" stroke-width="1"></line><line id="L&#xED;nea_122" data-name="L&#xED;nea 122" x1="298.828" transform="translate(0 0.665)" fill="none" stroke="rgba(255,255,255,0.35)" stroke-width="1"></line></g></g><g id="Grupo_633" data-name="Grupo 633" transform="translate(0)"><g id="Grupo_630" data-name="Grupo 630" transform="translate(0.46 27.919)"><g id="Grupo_629" data-name="Grupo 629" clip-path="url(#clip-path-2)"><rect id="Rect&#xE1;ngulo_187" data-name="Rect&#xE1;ngulo 187" width="299.442" height="449.367" transform="translate(-0.153 -0.665)" opacity="0.55" fill="url(#linear-gradient)"></rect></g></g><g id="Grupo_632" data-name="Grupo 632"><g id="Grupo_631" data-name="Grupo 631" clip-path="url(#clip-path-3)"><path id="Trazado_4216" data-name="Trazado 4216" d="M1.5,469.038H9.477l8.284-97.053,3.682-55.839,3.988-15.954,4.3-2.659,3.682-21.272,4.3-14.624,5.216-6.647,2.761-1.329,3.682-19.942,3.682,19.942,8.284,31.908,3.988,33.237,4.3,17.283,3.988,2.659,3.682-9.306,3.988,17.283h3.988l3.988,5.318,3.988-6.647,3.988,19.942,7.977,99.712h3.988l4.3-58.5,3.682-77.11,4.3,7.977,3.988,3.988,4.3-6.647,3.375-7.977,4.3,14.624L141.1,160.6l3.988-110.348,3.988,31.908,4.3-2.659,3.682-15.954L161.039,21l3.988,74.451,3.988,17.283,4.3-17.283,3.682-25.26,3.988,1.329,7.67-38.555,4.3,75.781,4.3-18.613,3.375-27.919,3.988,26.59,4.6-7.977,3.682-5.318L216.57,47.59l3.988,45.2,3.988,6.647,4.3-49.191,3.988-17.283,3.988,17.283,3.988-2.659,3.682-18.613,4.3,124.972L252.774,138l3.988-70.463,3.682,3.988,4.3-3.988,3.682-14.624,3.988,1.329,4.3,71.792,3.988-3.988,3.988-50.521,3.988,19.942,7.977-29.249,3.988-31.908" transform="translate(-1.04 6.919)" fill="none" stroke="#fff" stroke-linejoin="round" stroke-miterlimit="10" stroke-width="3"></path></g></g></g></g><g id="Grupo_639" data-name="Grupo 639" transform="translate(-8992 -3357.279)"><circle id="Elipse_83" data-name="Elipse 83" cx="20" cy="20" r="20" fill="#79e8b3" opacity="0.2"></circle><circle id="Elipse_84" data-name="Elipse 84" cx="10" cy="10" r="10" transform="translate(10 10)" fill="#79e8b3"></circle></g><g id="Grupo_640" data-name="Grupo 640" transform="translate(-8888.416 -3481.279)"><circle id="Elipse_83-2" data-name="Elipse 83" cx="20" cy="20" r="20" fill="#feca00" opacity="0.2"></circle><circle id="Elipse_84-2" data-name="Elipse 84" cx="10" cy="10" r="10" transform="translate(10 10)" fill="#feca00"></circle></g></g></g></svg>