<svg xmlns="http://www.w3.org/2000/svg" xmlns:xlink="http://www.w3.org/1999/xlink" width="600" height="602.417" viewBox="0 0 600 602.417"><defs><clipPath id="a"><rect width="539.462" height="539.462" fill="#9ae1ff"></rect></clipPath><clipPath id="d"><rect width="317.33" height="317.33" fill="#9ae1ff"></rect></clipPath><clipPath id="e"><rect width="460.446" height="539.462" fill="#9ae1ff"></rect></clipPath><clipPath id="f"><rect width="600" height="602.417" fill="none"></rect></clipPath></defs><g transform="translate(-984 -4454)"><g transform="translate(1014 4485)" clip-path="url(#a)"><g clip-path="url(#a)"><g opacity="0.15"><g clip-path="url(#a)"><path d="M539.462,269.731A269.775,269.775,0,0,1,269.731,539.462C120.744,539.462,0,418.717,0,269.731S120.744,0,269.731,0A269.775,269.775,0,0,1,539.462,269.731" fill="#9ae1ff"></path></g></g><g transform="translate(111.066 111.066)" opacity="0.15"><g clip-path="url(#d)"><path d="M324.33,165.665A158.665,158.665,0,1,1,165.665,7,158.662,158.662,0,0,1,324.33,165.665" transform="translate(-7 -7)" fill="#9ae1ff"></path></g></g><g opacity="0.15"><g clip-path="url(#e)"><path d="M460.446,460.446a268.575,268.575,0,0,1-190.716,79.015C120.744,539.462,0,418.717,0,269.731S120.744,0,269.731,0A268.574,268.574,0,0,1,460.446,79.015L269.731,269.731Z" fill="#9ae1ff"></path></g></g></g></g><g transform="translate(984 4454)"><g transform="translate(0 0)" clip-path="url(#f)"><path d="M34.03,7.685a7.685,7.685,0,1,1,7.685,7.685A7.679,7.679,0,0,1,34.03,7.685" transform="translate(259.796 0)" fill="#2e72ff"></path><path d="M34.52,6.944A3.454,3.454,0,1,1,37.974,10.4,3.453,3.453,0,0,1,34.52,6.944" transform="translate(263.537 26.644)" fill="#ff502e"></path><path d="M34.18,12.539a6.389,6.389,0,1,1,6.389,6.389,6.386,6.386,0,0,1-6.389-6.389" transform="translate(260.942 46.951)" fill="#2e72ff"></path><path d="M34.6,12.333A2.763,2.763,0,1,1,37.363,15.1,2.76,2.76,0,0,1,34.6,12.333" transform="translate(264.148 73.061)" fill="#2e72ff"></path><path d="M34.04,19.608a7.6,7.6,0,1,1,7.6,7.6,7.6,7.6,0,0,1-7.6-7.6" transform="translate(259.873 91.688)" fill="#ff502e"></path><path d="M34.01,22.837a7.857,7.857,0,1,1,7.857,7.857,7.853,7.853,0,0,1-7.857-7.857" transform="translate(259.644 114.362)" fill="#ff502e"></path><path d="M34.06,25.456a7.426,7.426,0,1,1,7.425,7.426,7.425,7.425,0,0,1-7.425-7.426" transform="translate(260.026 137.647)" fill="#2e72ff"></path><path d="M34.47,25.325a3.885,3.885,0,1,1,3.885,3.885,3.88,3.88,0,0,1-3.885-3.885" transform="translate(263.156 163.68)" fill="#2e72ff"></path><path d="M25.765,7.086a4.4,4.4,0,1,1,5.4,3.117,4.4,4.4,0,0,1-5.4-3.117" transform="translate(195.516 11.745)" fill="#ff502e"></path><path d="M26.25,14.027a7.942,7.942,0,1,1,9.731,5.621,7.944,7.944,0,0,1-9.731-5.621" transform="translate(198.312 30.733)" fill="#2e72ff"></path><path d="M27.194,14.557a5.873,5.873,0,1,1,7.192,4.153,5.872,5.872,0,0,1-7.192-4.153" transform="translate(206.072 54.69)" fill="#2e72ff"></path><path d="M28.154,14.885a3.624,3.624,0,1,1,4.438,2.564,3.624,3.624,0,0,1-4.438-2.564" transform="translate(213.987 78.806)" fill="#ff502e"></path><path d="M28.917,17.984a3.8,3.8,0,1,1,4.654,2.685,3.8,3.8,0,0,1-4.654-2.685" transform="translate(219.761 100.772)" fill="#2e72ff"></path><path d="M29.452,24.236A6.736,6.736,0,1,1,37.7,29a6.73,6.73,0,0,1-8.246-4.766" transform="translate(223.093 120.294)" fill="#2e72ff"></path><path d="M30.213,27.431a6.99,6.99,0,1,1,8.557,4.947,6.983,6.983,0,0,1-8.557-4.947" transform="translate(228.791 142.191)" fill="#ff502e"></path><path d="M31.408,24.4a1.811,1.811,0,1,1,2.219,1.278A1.811,1.811,0,0,1,31.408,24.4" transform="translate(239.304 168.893)" fill="#2e72ff"></path><path d="M18.058,15.844a7.512,7.512,0,1,1,10.258,2.746,7.509,7.509,0,0,1-10.258-2.746" transform="translate(130.168 34.926)" fill="#2e72ff"></path><path d="M19.5,14.258a4.491,4.491,0,1,1,6.13,1.641,4.486,4.486,0,0,1-6.13-1.641" transform="translate(144.29 57.432)" fill="#ff502e"></path><path d="M21.029,18.889a5.957,5.957,0,1,1,8.142,2.184,5.961,5.961,0,0,1-8.142-2.184" transform="translate(154.438 75.968)" fill="#2e72ff"></path><path d="M22.52,20.771a5.439,5.439,0,1,1,7.434,1.995,5.44,5.44,0,0,1-7.434-1.995" transform="translate(166.348 96.259)" fill="#ff502e"></path><path d="M23.982,20.617A3.454,3.454,0,1,1,28.7,21.878a3.454,3.454,0,0,1-4.714-1.261" transform="translate(179.564 117.852)" fill="#2e72ff"></path><path d="M25.489,23.575a3.714,3.714,0,1,1,5.068,1.356,3.709,3.709,0,0,1-5.068-1.356" transform="translate(190.784 137.464)" fill="#ff502e"></path><path d="M27,27.01a4.317,4.317,0,1,1,5.9,1.58A4.319,4.319,0,0,1,27,27.01" transform="translate(201.699 156.763)" fill="#ff502e"></path><path d="M28.561,34.273a7.686,7.686,0,1,1,10.5,2.815,7.683,7.683,0,0,1-10.5-2.815" transform="translate(210.169 173.616)" fill="#2e72ff"></path><path d="M12.01,21.02a6.392,6.392,0,1,1,9.04,0,6.394,6.394,0,0,1-9.04,0" transform="translate(77.399 77.17)" fill="#ff502e"></path><path d="M13.594,18.33a3.37,3.37,0,1,1,4.766,0,3.377,3.377,0,0,1-4.766,0" transform="translate(96.269 96.04)" fill="#ff502e"></path><path d="M15.7,20.313a3.279,3.279,0,1,1,4.637,0,3.283,3.283,0,0,1-4.637,0" transform="translate(112.538 112.311)" fill="#2e72ff"></path><path d="M18.59,29.3a7.6,7.6,0,1,1,10.75,0,7.6,7.6,0,0,1-10.75,0" transform="translate(124.913 124.69)" fill="#ff502e"></path><path d="M19.806,23.316a2.5,2.5,0,1,1,3.54,0,2.507,2.507,0,0,1-3.54,0" transform="translate(145.619 145.39)" fill="#2e72ff"></path><path d="M22.649,31.9a6.563,6.563,0,1,1,9.282,0,6.561,6.561,0,0,1-9.282,0" transform="translate(158.224 157.987)" fill="#ff502e"></path><path d="M23.959,26.735a1.984,1.984,0,1,1,2.806,0,1.98,1.98,0,0,1-2.806,0" transform="translate(178.464 178.235)" fill="#2e72ff"></path><path d="M27.043,37.513a7.424,7.424,0,1,1,10.5,0,7.421,7.421,0,0,1-10.5,0" transform="translate(189.843 189.622)" fill="#2e72ff"></path><path d="M8.493,31.64a7.857,7.857,0,1,1,10.732-2.875A7.86,7.86,0,0,1,8.493,31.64" transform="translate(34.851 129.632)" fill="#ff502e"></path><path d="M10.363,29.82a5.957,5.957,0,1,1,8.142-2.184,5.969,5.969,0,0,1-8.142,2.184" transform="translate(56.363 142.763)" fill="#ff502e"></path><path d="M11.832,26.18a3.021,3.021,0,1,1,4.127-1.105,3.023,3.023,0,0,1-4.127,1.105" transform="translate(78.794 156.807)" fill="#ff502e"></path><path d="M15.526,32.669a5.872,5.872,0,1,1,8.021-2.15,5.874,5.874,0,0,1-8.021,2.15" transform="translate(96.107 165.74)" fill="#ff502e"></path><path d="M18.952,37.946A8.031,8.031,0,1,1,29.917,35.01a8.024,8.024,0,0,1-10.966,2.936" transform="translate(114.034 175.279)" fill="#2e72ff"></path><path d="M21.725,40.2a8.458,8.458,0,1,1,11.553-3.1,8.463,8.463,0,0,1-11.553,3.1" transform="translate(133.485 186.357)" fill="#ff502e"></path><path d="M22.191,32.029A2.936,2.936,0,1,1,26.2,30.958a2.928,2.928,0,0,1-4.006,1.071" transform="translate(158.215 202.687)" fill="#2e72ff"></path><path d="M25.818,38.213a5.613,5.613,0,1,1,7.667-2.055,5.615,5.615,0,0,1-7.667,2.055" transform="translate(175.682 211.777)" fill="#2e72ff"></path><path d="M6.886,40.309A7.683,7.683,0,1,1,16.3,34.878a7.674,7.674,0,0,1-9.411,5.431" transform="translate(9.071 192.386)" fill="#ff502e"></path><path d="M7.3,33.737a3.714,3.714,0,1,1,4.55-2.625A3.711,3.711,0,0,1,7.3,33.737" transform="translate(34.706 201.824)" fill="#2e72ff"></path><path d="M11.763,39.147a6.217,6.217,0,1,1,7.615-4.395,6.219,6.219,0,0,1-7.615,4.395" transform="translate(54.618 205.541)" fill="#2e72ff"></path><path d="M16.172,44.4a8.635,8.635,0,1,1,10.577-6.1,8.637,8.637,0,0,1-10.577,6.1" transform="translate(74.6 209.323)" fill="#2e72ff"></path><path d="M15.993,36.066a3.714,3.714,0,1,1,4.55-2.625,3.711,3.711,0,0,1-4.55,2.625" transform="translate(101.072 219.605)" fill="#ff502e"></path><path d="M19.432,38.441a4.576,4.576,0,1,1,5.6-3.238,4.573,4.573,0,0,1-5.6,3.238" transform="translate(122.43 224.768)" fill="#ff502e"></path><path d="M20.978,35.222a2.418,2.418,0,1,1,2.962-1.71,2.422,2.422,0,0,1-2.962,1.71" transform="translate(146.468 232.606)" fill="#ff502e"></path><path d="M24.58,38.076a3.54,3.54,0,1,1,4.334-2.5,3.535,3.535,0,0,1-4.334,2.5" transform="translate(167.595 237.541)" fill="#ff502e"></path><path d="M7.944,49.857a7.944,7.944,0,1,1,7.944-7.944,7.945,7.945,0,0,1-7.944,7.944" transform="translate(0 259.338)" fill="#2e72ff"></path><path d="M8.348,44.326a5.008,5.008,0,1,1,5.008-5.008,5.012,5.012,0,0,1-5.008,5.008" transform="translate(25.499 261.934)" fill="#ff502e"></path><path d="M12.493,46.766a6.3,6.3,0,1,1,6.3-6.3,6.3,6.3,0,0,1-6.3,6.3" transform="translate(47.257 260.789)" fill="#2e72ff"></path><path d="M15.417,46.6a6.217,6.217,0,1,1,6.217-6.217A6.213,6.213,0,0,1,15.417,46.6" transform="translate(70.236 260.865)" fill="#ff502e"></path><path d="M16.584,42.7a4.144,4.144,0,1,1,4.144-4.144A4.146,4.146,0,0,1,16.584,42.7" transform="translate(94.971 262.697)" fill="#2e72ff"></path><path d="M21.264,46.278a6.044,6.044,0,1,1,6.044-6.044,6.04,6.04,0,0,1-6.044,6.044" transform="translate(116.195 261.018)" fill="#2e72ff"></path><path d="M21.363,40.1a2.763,2.763,0,1,1,2.763-2.763A2.76,2.76,0,0,1,21.363,40.1" transform="translate(141.999 263.919)" fill="#2e72ff"></path><path d="M25.432,42.374A3.972,3.972,0,1,1,29.4,38.4a3.972,3.972,0,0,1-3.972,3.972" transform="translate(163.833 262.85)" fill="#2e72ff"></path><path d="M8.494,54.077A5.613,5.613,0,1,1,12.466,47.2a5.611,5.611,0,0,1-3.972,6.873" transform="translate(10.907 328.579)" fill="#2e72ff"></path><path d="M12.478,55.055a6.561,6.561,0,1,1,4.637-8.039,6.565,6.565,0,0,1-4.637,8.039" transform="translate(32.187 321.816)" fill="#ff502e"></path><path d="M17.249,57.313a8.2,8.2,0,1,1,5.8-10.05,8.193,8.193,0,0,1-5.8,10.05" transform="translate(52.862 314.438)" fill="#2e72ff"></path><path d="M15.212,48.549a3.884,3.884,0,1,1,2.746-4.757,3.885,3.885,0,0,1-2.746,4.757" transform="translate(78.799 312.323)" fill="#ff502e"></path><path d="M21.567,53.364A6.905,6.905,0,1,1,26.454,44.9a6.913,6.913,0,0,1-4.887,8.462" transform="translate(98.251 303.726)" fill="#2e72ff"></path><path d="M23.973,51.79a6.476,6.476,0,1,1,4.576-7.935,6.484,6.484,0,0,1-4.576,7.935" transform="translate(120.748 298.177)" fill="#ff502e"></path><path d="M28.452,53.569A7.857,7.857,0,1,1,34,43.942a7.868,7.868,0,0,1-5.552,9.627" transform="translate(141.654 291.027)" fill="#ff502e"></path><path d="M29.373,49.6a6.133,6.133,0,1,1,4.334-7.512A6.137,6.137,0,0,1,29.373,49.6" transform="translate(165.305 286.63)" fill="#2e72ff"></path><path d="M11.332,59.3a4.232,4.232,0,1,1,1.546-5.776A4.231,4.231,0,0,1,11.332,59.3" transform="translate(38.057 392.4)" fill="#ff502e"></path><path d="M17.875,62.782a7.079,7.079,0,1,1,2.59-9.67,7.083,7.083,0,0,1-2.59,9.67" transform="translate(55.37 378.432)" fill="#2e72ff"></path><path d="M16.528,56.3a4.232,4.232,0,1,1,1.546-5.776A4.232,4.232,0,0,1,16.528,56.3" transform="translate(77.725 369.497)" fill="#2e72ff"></path><path d="M23.91,60.84a7.686,7.686,0,1,1,2.815-10.5,7.683,7.683,0,0,1-2.815,10.5" transform="translate(94.502 354.998)" fill="#2e72ff"></path><path d="M22.326,54.05a4.664,4.664,0,1,1,1.71-6.372,4.675,4.675,0,0,1-1.71,6.372" transform="translate(117.015 346.221)" fill="#2e72ff"></path><path d="M25.637,53.459a5.18,5.18,0,1,1,1.9-7.08,5.184,5.184,0,0,1-1.9,7.08" transform="translate(136.387 334.309)" fill="#2e72ff"></path><path d="M24.41,47.12a2.418,2.418,0,1,1,.881-3.3,2.42,2.42,0,0,1-.881,3.3" transform="translate(158.672 325.304)" fill="#ff502e"></path><path d="M29.757,49.1a4.4,4.4,0,1,1,1.615-6.018A4.406,4.406,0,0,1,29.757,49.1" transform="translate(176.75 312.094)" fill="#ff502e"></path><path d="M17.609,65.662a4.231,4.231,0,1,1,0-5.984,4.237,4.237,0,0,1,0,5.984" transform="translate(79.311 446.164)" fill="#ff502e"></path><path d="M17.119,60.929a2.589,2.589,0,1,1,0-3.661,2.59,2.59,0,0,1,0,3.661" transform="translate(96.958 431.418)" fill="#ff502e"></path><path d="M19.377,58.945a2.674,2.674,0,1,1,0-3.782,2.673,2.673,0,0,1,0,3.782" transform="translate(113.074 415.149)" fill="#2e72ff"></path><path d="M29.47,64.8a7.687,7.687,0,1,1,0-10.871,7.681,7.681,0,0,1,0,10.871" transform="translate(124.842 394.525)" fill="#ff502e"></path><path d="M28.293,59.376a5.611,5.611,0,1,1,0-7.935,5.607,5.607,0,0,1,0,7.935" transform="translate(142.865 380.163)" fill="#ff502e"></path><path d="M29.592,56.432a5.092,5.092,0,1,1,0-7.2,5.1,5.1,0,0,1,0,7.2" transform="translate(159.518 364.423)" fill="#ff502e"></path><path d="M35.284,57.882a7.339,7.339,0,1,1,0-10.378,7.337,7.337,0,0,1,0,10.378" transform="translate(173.727 346.248)" fill="#2e72ff"></path><path d="M37.955,56.31a7.687,7.687,0,1,1,0-10.871,7.681,7.681,0,0,1,0,10.871" transform="translate(189.62 329.748)" fill="#2e72ff"></path><path d="M20.639,66.488a1.555,1.555,0,1,1-.57-2.124,1.555,1.555,0,0,1,.57,2.124" transform="translate(135.435 489.779)" fill="#ff502e"></path><path d="M23.655,65.083a2.421,2.421,0,1,1-.889-3.3,2.419,2.419,0,0,1,.889,3.3" transform="translate(146.122 469.183)" fill="#ff502e"></path><path d="M30.289,66.55a5.354,5.354,0,1,1-1.96-7.313,5.351,5.351,0,0,1,1.96,7.313" transform="translate(154.977 446.752)" fill="#2e72ff"></path><path d="M26.8,60.007a2.5,2.5,0,1,1-.915-3.419,2.5,2.5,0,0,1,.915,3.419" transform="translate(168.948 429.439)" fill="#2e72ff"></path><path d="M29.362,58.246A3.11,3.11,0,1,1,28.223,54a3.115,3.115,0,0,1,1.14,4.248" transform="translate(179.865 409.071)" fill="#2e72ff"></path><path d="M40.08,62.939A8.375,8.375,0,1,1,37.015,51.5a8.373,8.373,0,0,1,3.065,11.44" transform="translate(186.658 384.578)" fill="#2e72ff"></path><path d="M31,51.972a2.333,2.333,0,1,1-.855-3.186A2.34,2.34,0,0,1,31,51.972" transform="translate(203.456 370.083)" fill="#2e72ff"></path><path d="M33.559,50.21A2.936,2.936,0,1,1,32.488,46.2a2.928,2.928,0,0,1,1.071,4.006" transform="translate(214.368 349.715)" fill="#2e72ff"></path><path d="M29.956,70.1a2.073,2.073,0,1,1-1.468-2.538A2.076,2.076,0,0,1,29.956,70.1" transform="translate(197.576 515.256)" fill="#2e72ff"></path><path d="M34.085,69.274a3.884,3.884,0,1,1-2.746-4.757,3.878,3.878,0,0,1,2.746,4.757" transform="translate(201.9 491.526)" fill="#ff502e"></path><path d="M43.012,71.413A8.291,8.291,0,1,1,37.15,61.259a8.294,8.294,0,0,1,5.863,10.154" transform="translate(203.93 465.505)" fill="#ff502e"></path><path d="M40.432,66.444a6.476,6.476,0,1,1-4.576-7.935,6.469,6.469,0,0,1,4.576,7.935" transform="translate(211.466 444.985)" fill="#ff502e"></path><path d="M38.82,62.065a5.185,5.185,0,1,1-3.67-6.346,5.194,5.194,0,0,1,3.67,6.346" transform="translate(218.535 424.013)" fill="#ff502e"></path><path d="M32.878,55.017a1.555,1.555,0,1,1-1.1-1.9,1.548,1.548,0,0,1,1.1,1.9" transform="translate(227.672 405.098)" fill="#2e72ff"></path><path d="M39.089,55.478a4.491,4.491,0,1,1-3.177-5.5,4.494,4.494,0,0,1,3.177,5.5" transform="translate(231.002 380.375)" fill="#2e72ff"></path><path d="M42.1,53.962a5.7,5.7,0,1,1-4.032-6.977A5.7,5.7,0,0,1,42.1,53.962" transform="translate(235.867 357.188)" fill="#2e72ff"></path><path d="M49.236,75.608a7.6,7.6,0,1,1-7.6-7.6,7.6,7.6,0,0,1,7.6,7.6" transform="translate(259.873 519.211)" fill="#2e72ff"></path><path d="M39.8,68.18a2.59,2.59,0,1,1-2.59-2.59,2.587,2.587,0,0,1,2.59,2.59" transform="translate(264.301 500.736)" fill="#2e72ff"></path><path d="M41.59,66.02a3.54,3.54,0,1,1-3.54-3.54,3.545,3.545,0,0,1,3.54,3.54" transform="translate(263.461 476.993)" fill="#ff502e"></path><path d="M39.475,62.028a2.418,2.418,0,1,1-2.418-2.418,2.414,2.414,0,0,1,2.418,2.418" transform="translate(264.453 455.083)" fill="#ff502e"></path><path d="M46.8,62.463a6.3,6.3,0,1,1-6.3-6.3,6.3,6.3,0,0,1,6.3,6.3" transform="translate(261.018 428.744)" fill="#ff502e"></path><path d="M42.892,57.631A4.231,4.231,0,1,1,38.661,53.4a4.227,4.227,0,0,1,4.231,4.231" transform="translate(262.85 407.673)" fill="#2e72ff"></path><path d="M49.887,57.914a7.944,7.944,0,1,1-7.944-7.944,7.945,7.945,0,0,1,7.944,7.944" transform="translate(259.567 381.488)" fill="#ff502e"></path><path d="M42.078,51.249a3.8,3.8,0,1,1-3.8-3.8,3.8,3.8,0,0,1,3.8,3.8" transform="translate(263.232 362.249)" fill="#2e72ff"></path><path d="M47.871,69.136a2.244,2.244,0,1,1-2.746-1.589,2.239,2.239,0,0,1,2.746,1.589" transform="translate(331.789 515.097)" fill="#2e72ff"></path><path d="M54.605,68.777a6.3,6.3,0,1,1-7.719-4.455,6.307,6.307,0,0,1,7.719,4.455" transform="translate(322.266 489.389)" fill="#2e72ff"></path><path d="M49.835,64.527A4.143,4.143,0,1,1,44.758,61.6a4.143,4.143,0,0,1,5.077,2.927" transform="translate(318.255 469.178)" fill="#ff502e"></path><path d="M45.226,60.336a2.073,2.073,0,1,1-2.539-1.468,2.076,2.076,0,0,1,2.539,1.468" transform="translate(314.152 448.883)" fill="#ff502e"></path><path d="M47.005,58.3a3.455,3.455,0,1,1-4.231-2.444A3.453,3.453,0,0,1,47.005,58.3" transform="translate(307.002 425.541)" fill="#ff502e"></path><path d="M48.463,56.16a4.662,4.662,0,1,1-5.707-3.3,4.661,4.661,0,0,1,5.707,3.3" transform="translate(300.011 402.349)" fill="#2e72ff"></path><path d="M48.647,53.585A5.181,5.181,0,1,1,42.3,49.924a5.181,5.181,0,0,1,6.346,3.661" transform="translate(293.627 379.772)" fill="#ff502e"></path><path d="M41.8,48.637a1.9,1.9,0,1,1-2.323-1.347A1.9,1.9,0,0,1,41.8,48.637" transform="translate(290.598 360.544)" fill="#ff502e"></path><path d="M63.716,66.925A6.739,6.739,0,1,1,54.5,64.455a6.737,6.737,0,0,1,9.213,2.469" transform="translate(390.416 485.198)" fill="#2e72ff"></path><path d="M54.349,62.6a2.244,2.244,0,1,1-3.065-.82,2.245,2.245,0,0,1,3.065.82" transform="translate(382.937 469.337)" fill="#2e72ff"></path><path d="M54.511,60.367a3.2,3.2,0,1,1-4.36-1.166,3.19,3.19,0,0,1,4.36,1.166" transform="translate(370.644 448.661)" fill="#2e72ff"></path><path d="M62.08,59.76A8.375,8.375,0,1,1,50.639,56.7,8.373,8.373,0,0,1,62.08,59.76" transform="translate(354.613 424.246)" fill="#ff502e"></path><path d="M58.615,56.728a7.253,7.253,0,1,1-9.9-2.651,7.252,7.252,0,0,1,9.9,2.651" transform="translate(344.151 405.407)" fill="#2e72ff"></path><path d="M49.41,52.441A2.851,2.851,0,1,1,45.516,51.4a2.851,2.851,0,0,1,3.894,1.045" transform="translate(336.596 389.464)" fill="#2e72ff"></path><path d="M47,49.641a2.333,2.333,0,1,1-3.186-.855A2.332,2.332,0,0,1,47,49.641" transform="translate(325.605 370.083)" fill="#2e72ff"></path><path d="M48.372,47.672a3.973,3.973,0,1,1-5.422-1.451,3.967,3.967,0,0,1,5.422,1.451" transform="translate(312.698 348.799)" fill="#ff502e"></path><path d="M71.326,60.3a7.772,7.772,0,1,1-10.991,0,7.78,7.78,0,0,1,10.991,0" transform="translate(443.263 443.034)" fill="#ff502e"></path><path d="M61.651,57.347a3.022,3.022,0,1,1-4.274,0,3.017,3.017,0,0,1,4.274,0" transform="translate(431.266 431.036)" fill="#ff502e"></path><path d="M66.946,56.053a7.687,7.687,0,1,1-10.871,0,7.681,7.681,0,0,1,10.871,0" transform="translate(410.947 410.72)" fill="#ff502e"></path><path d="M58.232,53.194a3.541,3.541,0,1,1-5.008,0,3.544,3.544,0,0,1,5.008,0" transform="translate(398.421 398.192)" fill="#2e72ff"></path><path d="M63.388,51.883a8.114,8.114,0,1,1-11.475,0,8.114,8.114,0,0,1,11.475,0" transform="translate(378.18 377.951)" fill="#ff502e"></path><path d="M60.033,49.625a7.339,7.339,0,1,1-10.378,0,7.338,7.338,0,0,1,10.378,0" transform="translate(362.669 362.44)" fill="#2e72ff"></path><path d="M55.447,47.23a5.791,5.791,0,1,1-8.194,0,5.8,5.8,0,0,1,8.194,0" transform="translate(347.845 347.618)" fill="#ff502e"></path><path d="M57.442,45.567a8.377,8.377,0,1,1-11.846,0,8.375,8.375,0,0,1,11.846,0" transform="translate(329.359 329.137)" fill="#2e72ff"></path><path d="M73.69,52.013a6.735,6.735,0,1,1-9.2,2.461,6.734,6.734,0,0,1,9.2-2.461" transform="translate(485.427 390.194)" fill="#ff502e"></path><path d="M72.882,50.537a8.031,8.031,0,1,1-10.966,2.936,8.024,8.024,0,0,1,10.966-2.936" transform="translate(464.45 377.596)" fill="#2e72ff"></path><path d="M69.33,49.025A7.338,7.338,0,1,1,59.305,51.71,7.334,7.334,0,0,1,69.33,49.025" transform="translate(445.225 366.753)" fill="#ff502e"></path><path d="M59.321,47.429a1.985,1.985,0,1,1-2.711.725,1.981,1.981,0,0,1,2.711-.725" transform="translate(430.125 360.034)" fill="#ff502e"></path><path d="M58.515,45.951a3.28,3.28,0,1,1-4.481,1.2,3.277,3.277,0,0,1,4.481-1.2" transform="translate(409.146 347.438)" fill="#ff502e"></path><path d="M59.511,44.5a5.872,5.872,0,1,1-8.03,2.15,5.879,5.879,0,0,1,8.03-2.15" transform="translate(387.013 333.695)" fill="#ff502e"></path><path d="M50.929,42.919a1.555,1.555,0,1,1-2.124.57,1.555,1.555,0,0,1,2.124-.57" transform="translate(370.996 326.061)" fill="#ff502e"></path><path d="M55.5,41.513a6.735,6.735,0,1,1-9.2,2.461,6.734,6.734,0,0,1,9.2-2.461" transform="translate(346.583 310.034)" fill="#ff502e"></path><path d="M70.632,43.485a2.5,2.5,0,1,1-3.074,1.77,2.488,2.488,0,0,1,3.074-1.77" transform="translate(515.096 331.331)" fill="#ff502e"></path><path d="M72.166,42.394a6.391,6.391,0,1,1-7.823,4.516,6.386,6.386,0,0,1,7.823-4.516" transform="translate(489.54 321.967)" fill="#2e72ff"></path><path d="M65.126,41.912a2.763,2.763,0,1,1-3.385,1.951,2.759,2.759,0,0,1,3.385-1.951" transform="translate(470.626 319.245)" fill="#2e72ff"></path><path d="M63.314,41.056a3.714,3.714,0,1,1-4.55,2.625,3.711,3.711,0,0,1,4.55-2.625" transform="translate(447.658 312.477)" fill="#2e72ff"></path><path d="M59.129,40.373A2.592,2.592,0,1,1,55.96,42.2a2.586,2.586,0,0,1,3.169-1.83" transform="translate(426.535 307.539)" fill="#2e72ff"></path><path d="M62.849,39.126a8.376,8.376,0,1,1-10.258,5.923,8.38,8.38,0,0,1,10.258-5.923" transform="translate(399.295 296.499)" fill="#ff502e"></path><path d="M54.225,38.757A3.366,3.366,0,1,1,50.1,41.14a3.372,3.372,0,0,1,4.127-2.383" transform="translate(381.601 294.995)" fill="#2e72ff"></path><path d="M50.637,38.03a2.763,2.763,0,1,1-3.385,1.951,2.758,2.758,0,0,1,3.385-1.951" transform="translate(360.012 289.608)" fill="#ff502e"></path><path d="M73.272,34.32a4.922,4.922,0,1,1-4.922,4.922,4.919,4.919,0,0,1,4.922-4.922" transform="translate(521.807 262.01)" fill="#ff502e"></path><path d="M72.715,34a7.685,7.685,0,1,1-7.685,7.685A7.679,7.679,0,0,1,72.715,34" transform="translate(496.461 259.567)" fill="#2e72ff"></path><path d="M67.73,34.26a5.44,5.44,0,1,1-5.44,5.44,5.439,5.439,0,0,1,5.44-5.44" transform="translate(475.543 261.552)" fill="#2e72ff"></path><path d="M63.508,34.42a4.058,4.058,0,1,1-4.058,4.058,4.053,4.053,0,0,1,4.058-4.058" transform="translate(453.861 262.774)" fill="#2e72ff"></path><path d="M61.73,34.26a5.44,5.44,0,1,1-5.44,5.44,5.439,5.439,0,0,1,5.44-5.44" transform="translate(429.737 261.552)" fill="#ff502e"></path><path d="M58.348,34.31a5.008,5.008,0,1,1-5.008,5.008,5.011,5.011,0,0,1,5.008-5.008" transform="translate(407.215 261.934)" fill="#ff502e"></path><path d="M54.966,34.36a4.576,4.576,0,1,1-4.576,4.576,4.573,4.573,0,0,1,4.576-4.576" transform="translate(384.694 262.316)" fill="#ff502e"></path><path d="M53.264,34.19a6.044,6.044,0,1,1-6.044,6.044,6.04,6.04,0,0,1,6.044-6.044" transform="translate(360.493 261.018)" fill="#2e72ff"></path><path d="M71,25.669a5.181,5.181,0,1,1-3.661,6.346A5.181,5.181,0,0,1,71,25.669" transform="translate(512.732 194.602)" fill="#ff502e"></path><path d="M66.054,26.711a1.9,1.9,0,1,1-1.347,2.323,1.9,1.9,0,0,1,1.347-2.323" transform="translate(493.511 203.429)" fill="#ff502e"></path><path d="M63.044,27.5a1.726,1.726,0,1,1-1.217,2.115A1.727,1.727,0,0,1,63.044,27.5" transform="translate(471.542 209.509)" fill="#ff502e"></path><path d="M64.309,27.738A8.376,8.376,0,1,1,58.386,38a8.373,8.373,0,0,1,5.923-10.258" transform="translate(443.537 209.559)" fill="#2e72ff"></path><path d="M61.2,28.542a8.031,8.031,0,1,1-5.681,9.835A8.026,8.026,0,0,1,61.2,28.542" transform="translate(421.721 215.792)" fill="#2e72ff"></path><path d="M55.5,29.685a3.538,3.538,0,1,1-2.513,4.334A3.526,3.526,0,0,1,55.5,29.685" transform="translate(403.565 225.684)" fill="#2e72ff"></path><path d="M53.889,30.291a5.613,5.613,0,1,1-3.972,6.873,5.611,5.611,0,0,1,3.972-6.873" transform="translate(379.615 229.783)" fill="#ff502e"></path><path d="M52.611,30.857a8.2,8.2,0,1,1-5.8,10.042,8.206,8.206,0,0,1,5.8-10.042" transform="translate(355.198 233.422)" fill="#2e72ff"></path><path d="M66.488,17.993a5.528,5.528,0,1,1-2.02,7.546,5.52,5.52,0,0,1,2.02-7.546" transform="translate(486.498 131.692)" fill="#ff502e"></path><path d="M64.289,19.51a6.561,6.561,0,1,1-2.4,8.962,6.564,6.564,0,0,1,2.4-8.962" transform="translate(465.747 142.228)" fill="#2e72ff"></path><path d="M61.426,21a5.872,5.872,0,1,1-2.15,8.021A5.874,5.874,0,0,1,61.426,21" transform="translate(446.523 154.288)" fill="#2e72ff"></path><path d="M59.158,22.513a6.735,6.735,0,1,1-2.461,9.2,6.743,6.743,0,0,1,2.461-9.2" transform="translate(425.927 164.981)" fill="#2e72ff"></path><path d="M55.833,23.98a4.835,4.835,0,1,1-1.77,6.605,4.832,4.832,0,0,1,1.77-6.605" transform="translate(407.77 178.107)" fill="#2e72ff"></path><path d="M52.869,25.461a3.882,3.882,0,1,1-1.425,5.31,3.879,3.879,0,0,1,1.425-5.31" transform="translate(388.778 190.398)" fill="#2e72ff"></path><path d="M50.5,26.973a4.491,4.491,0,1,1-1.64,6.13,4.486,4.486,0,0,1,1.64-6.13" transform="translate(368.402 201.318)" fill="#2e72ff"></path><path d="M49.232,28.534a7.942,7.942,0,1,1-2.91,10.853,7.947,7.947,0,0,1,2.91-10.853" transform="translate(345.512 209.713)" fill="#2e72ff"></path><path d="M60.046,11.932a6.13,6.13,0,1,1,0,8.669,6.134,6.134,0,0,1,0-8.669" transform="translate(444.717 77.399)" fill="#ff502e"></path><path d="M58.061,14.19a6.905,6.905,0,1,1,0,9.765,6.91,6.91,0,0,1,0-9.765" transform="translate(427.836 92.91)" fill="#2e72ff"></path><path d="M55.425,15.8a3.975,3.975,0,1,1,0,5.621,3.971,3.971,0,0,1,0-5.621" transform="translate(414.231 111.698)" fill="#2e72ff"></path><path d="M53.513,18.128a5.183,5.183,0,1,1,0,7.331,5.19,5.19,0,0,1,0-7.331" transform="translate(396.966 126.825)" fill="#ff502e"></path><path d="M51.318,20.176a4.75,4.75,0,1,1,0,6.718,4.747,4.747,0,0,1,0-6.718" transform="translate(381.15 143.401)" fill="#2e72ff"></path><path d="M49.687,22.787a7.51,7.51,0,1,1,0,10.62,7.5,7.5,0,0,1,0-10.62" transform="translate(362.516 157.153)" fill="#2e72ff"></path><path d="M46.981,24.324a4.231,4.231,0,1,1,0,5.984,4.237,4.237,0,0,1,0-5.984" transform="translate(349.223 176.252)" fill="#ff502e"></path><path d="M44.818,26.4a3.975,3.975,0,1,1,0,5.621,3.971,3.971,0,0,1,0-5.621" transform="translate(333.254 192.668)" fill="#2e72ff"></path><path d="M52.058,8.332A7.512,7.512,0,1,1,54.8,18.589,7.5,7.5,0,0,1,52.058,8.332" transform="translate(389.735 34.926)" fill="#2e72ff"></path><path d="M50.5,9.7a4.317,4.317,0,1,1,1.58,5.9A4.319,4.319,0,0,1,50.5,9.7" transform="translate(381.106 57.586)" fill="#ff502e"></path><path d="M48.949,11.24a1.555,1.555,0,1,1,.57,2.124,1.555,1.555,0,0,1-.57-2.124" transform="translate(372.096 79.861)" fill="#2e72ff"></path><path d="M47.468,14.168a2.414,2.414,0,1,1,.872,3.3,2.4,2.4,0,0,1-.872-3.3" transform="translate(359.882 98.933)" fill="#ff502e"></path><path d="M46.008,17.73a4.921,4.921,0,1,1,1.8,6.726,4.925,4.925,0,0,1-1.8-6.726" transform="translate(346.215 116.551)" fill="#ff502e"></path><path d="M44.454,19.133a1.814,1.814,0,1,1,.665,2.478,1.817,1.817,0,0,1-.665-2.478" transform="translate(337.512 139.143)" fill="#ff502e"></path><path d="M43.014,23.059a5.269,5.269,0,1,1,1.925,7.192,5.258,5.258,0,0,1-1.925-7.192" transform="translate(323.012 155.922)" fill="#ff502e"></path><path d="M41.558,26.417a7.249,7.249,0,1,1,2.651,9.9,7.242,7.242,0,0,1-2.651-9.9" transform="translate(309.799 174.003)" fill="#2e72ff"></path><path d="M43.186,6.152a6.561,6.561,0,1,1,4.637,8.039,6.561,6.561,0,0,1-4.637-8.039" transform="translate(327.969 9.839)" fill="#2e72ff"></path><path d="M42.7,6.836a3.021,3.021,0,1,1,2.133,3.7,3.013,3.013,0,0,1-2.133-3.7" transform="translate(325.169 35.092)" fill="#ff502e"></path><path d="M41.674,11.625a6.042,6.042,0,1,1,4.274,7.4,6.046,6.046,0,0,1-4.274-7.4" transform="translate(316.573 54.54)" fill="#2e72ff"></path><path d="M40.763,15.55a7.683,7.683,0,1,1,5.431,9.411,7.674,7.674,0,0,1-5.431-9.411" transform="translate(309.195 75.215)" fill="#ff502e"></path><path d="M40.494,14.559a1.466,1.466,0,1,1,1.036,1.8,1.46,1.46,0,0,1-1.036-1.8" transform="translate(308.765 102.834)" fill="#2e72ff"></path><path d="M39.183,21.564A8.031,8.031,0,1,1,44.864,31.4a8.033,8.033,0,0,1-5.681-9.834" transform="translate(297.029 119.15)" fill="#2e72ff"></path><path d="M38.477,23.92A7.165,7.165,0,1,1,43.546,32.7a7.168,7.168,0,0,1-5.068-8.781" transform="translate(291.864 142.032)" fill="#2e72ff"></path><path d="M37.8,26.061a5.958,5.958,0,1,1,4.214,7.3,5.957,5.957,0,0,1-4.214-7.3" transform="translate(287.007 165.224)" fill="#2e72ff"></path><path d="M33.965,32.181a8.246,8.246,0,1,1,8.246,8.246,8.245,8.245,0,0,1-8.246-8.246" transform="translate(259.3 182.728)" fill="#2e72ff"></path><path d="M31.629,35.065a8.6,8.6,0,1,1,10.534,6.079,8.6,8.6,0,0,1-10.534-6.079" transform="translate(239.221 185.015)" fill="#2e72ff"></path><path d="M29.962,29.5a2.358,2.358,0,1,1,3.221.863,2.356,2.356,0,0,1-3.221-.863" transform="translate(226.331 198.157)" fill="#2e72ff"></path><path d="M29.173,39.7a7.467,7.467,0,1,1,10.56,0,7.463,7.463,0,0,1-10.56,0" transform="translate(206.009 205.778)" fill="#2e72ff"></path><path d="M29.387,44.13A8.135,8.135,0,1,1,40.5,41.151,8.135,8.135,0,0,1,29.387,44.13" transform="translate(193.283 220.996)" fill="#2e72ff"></path><path d="M28.608,42.21a5.354,5.354,0,1,1,6.553-3.782,5.348,5.348,0,0,1-6.553,3.782" transform="translate(188.114 241.868)" fill="#2e72ff"></path><path d="M27.111,39.559a2.478,2.478,0,1,1,2.478-2.478,2.478,2.478,0,0,1-2.478,2.478" transform="translate(188.057 264.171)" fill="#2e72ff"></path><path d="M30.218,45.506a4.34,4.34,0,1,1,3.065-5.31,4.333,4.333,0,0,1-3.065,5.31" transform="translate(189.016 282.288)" fill="#2e72ff"></path><path d="M29.92,44.52a2.646,2.646,0,1,1,.967-3.609,2.639,2.639,0,0,1-.967,3.609" transform="translate(198.138 302.192)" fill="#2e72ff"></path><path d="M37.8,51.913a6.258,6.258,0,1,1,0-8.85,6.259,6.259,0,0,1,0,8.85" transform="translate(207.078 314.813)" fill="#2e72ff"></path><path d="M34.748,47.365a2.76,2.76,0,1,1-1.01-3.765,2.766,2.766,0,0,1,1.01,3.765" transform="translate(225.983 330.042)" fill="#2e72ff"></path><path d="M45.82,52.884a7.29,7.29,0,1,1-5.155-8.928,7.293,7.293,0,0,1,5.155,8.928" transform="translate(240.382 333.658)" fill="#2e72ff"></path><path d="M41.818,48.127a3.661,3.661,0,1,1-3.661-3.661,3.663,3.663,0,0,1,3.661,3.661" transform="translate(263.354 339.468)" fill="#2e72ff"></path><path d="M51.991,49.447a7.826,7.826,0,1,1-9.584-5.535,7.815,7.815,0,0,1,9.584,5.535" transform="translate(279.43 333.183)" fill="#2e72ff"></path><path d="M50.615,45.9a6.112,6.112,0,1,1-8.349-2.236A6.122,6.122,0,0,1,50.615,45.9" transform="translate(299.36 327.08)" fill="#2e72ff"></path><path d="M48.987,42.74a4.4,4.4,0,1,1-6.217,0,4.393,4.393,0,0,1,6.217,0" transform="translate(316.686 316.457)" fill="#2e72ff"></path><path d="M51.027,39.989a5.379,5.379,0,1,1-7.348,1.969,5.379,5.379,0,0,1,7.348-1.969" transform="translate(327.951 299.781)" fill="#2e72ff"></path><path d="M51.059,37.016a5.672,5.672,0,1,1-6.942,4.006,5.669,5.669,0,0,1,6.942-4.006" transform="translate(335.318 281.107)" fill="#2e72ff"></path><path d="M47.294,34.579a2.685,2.685,0,1,1-2.685,2.685,2.683,2.683,0,0,1,2.685-2.685" transform="translate(340.56 263.988)" fill="#2e72ff"></path><path d="M48.926,31.736a6.945,6.945,0,1,1-4.913,8.5,6.946,6.946,0,0,1,4.913-8.5" transform="translate(334.189 240.462)" fill="#2e72ff"></path><path d="M44.252,29.923a1.751,1.751,0,1,1-.639,2.392,1.75,1.75,0,0,1,.639-2.392" transform="translate(331.16 226.646)" fill="#2e72ff"></path><path d="M43.193,29.021a6.783,6.783,0,1,1,0,9.593,6.78,6.78,0,0,1,0-9.593" transform="translate(314.571 206.377)" fill="#2e72ff"></path><path d="M40.026,28.442A5.752,5.752,0,1,1,42.132,36.3a5.75,5.75,0,0,1-2.107-7.857" transform="translate(299.675 195.161)" fill="#2e72ff"></path><path d="M36.921,29.746a7.218,7.218,0,1,1,5.1,8.842,7.213,7.213,0,0,1-5.1-8.842" transform="translate(279.967 186.233)" fill="#2e72ff"></path></g></g></g></svg>