<svg xmlns="http://www.w3.org/2000/svg" width="350" height="210.693" viewBox="0 0 350 210.693"><path id="iso-weewoo" d="M221.328,13.464c-.168-.168-.337-.308-.561-.5-.729-.7-1.486-1.374-2.271-2.047C208.485,2.5,195.446-1.034,182.462.256A56.046,56.046,0,0,0,148.644,16.24c-.224.224-.449.477-.673.729-.869.9-1.711,1.795-2.5,2.748l-25.518,30.4-25.518-30.4a53.7,53.7,0,0,0-74.732-7.207,8.009,8.009,0,0,0-1.178,1.01,53.635,53.635,0,0,0-6.169,74.788l98.567,118c.28.337.617.673.953,1.01a11.414,11.414,0,0,0,15.339.785,10.535,10.535,0,0,0,1.739-1.795l19.657-23.527h0l.449-.561,26.023-31.154h0l14.778-17.638h-.028l25.238-30.257,27.06-32.22h.028l30.762-36.679c.421-.5.869-1.01,1.374-1.542.168-.14.337-.308.477-.449a33.036,33.036,0,0,1,19.994-9.506A25.973,25.973,0,0,1,314.063,28.3c.252.224.5.449.785.673h0l.729.7a8.289,8.289,0,0,0,.729.673A30.818,30.818,0,0,1,320.2,73.7L230.218,181.435l-15.984-19.04-.224-.252-13.18-15.7-14.75,17.694L196.2,176.191l25.125,30.369a11.688,11.688,0,0,0,16.32,1.374,11.617,11.617,0,0,0,2.019-2.187l27.649-33.286L337.646,88.28a53.677,53.677,0,0,0-6.2-74.844c-.168-.168-.337-.308-.561-.5-.729-.7-1.486-1.374-2.243-2.047A48.659,48.659,0,0,0,292.555.256,56.046,56.046,0,0,0,258.736,16.24c-.224.224-.449.477-.673.729-.869.9-1.711,1.795-2.5,2.748L238.182,40.412h0L193.427,93.944l-.112-.112-18.339,21.845h0l-14.806,17.638h0L141.353,155.72l-21.424,25.35-12.815-15.03-2.888-3.477-.056.056L93.233,149.8,29.747,73.754A30.788,30.788,0,0,1,77,34.271l72.18,85.948,14.806-17.61L134.735,67.753l28.126-33.482c.421-.5.869-1.01,1.374-1.542.168-.14.336-.308.477-.449a33.036,33.036,0,0,1,19.994-9.506A25.973,25.973,0,0,1,204,28.3c.252.224.5.449.785.673h0l.729.7a8.289,8.289,0,0,0,.729.673,30.519,30.519,0,0,1,8.665,11.75L230.47,23.587a53.136,53.136,0,0,0-9.142-10.151" transform="translate(-0.003 0.002)" fill="#fff" fill-rule="evenodd"></path></svg>