<svg xmlns="http://www.w3.org/2000/svg" width="880" height="167.89" viewBox="0 0 880 167.89"><g id="logo-we-are-weewoo" transform="translate(-520 -5310.37)"><g id="Grupo_397" data-name="Grupo 397"><g id="b" transform="translate(520 5345.354)"><g id="c" transform="translate(0 0)"><g id="Grupo_212" data-name="Grupo 212" transform="translate(0)"><path id="Trazado_385" data-name="Trazado 385" d="M139.616,8.492c-.106-.106-.212-.195-.354-.318-.46-.442-.938-.867-1.433-1.291A30.459,30.459,0,0,0,115.1.161,35.354,35.354,0,0,0,93.766,10.244c-.142.142-.283.3-.425.46-.548.566-1.079,1.132-1.574,1.734l-16.1,19.175-16.1-19.175A33.874,33.874,0,0,0,12.433,7.891a5.052,5.052,0,0,0-.743.637A33.833,33.833,0,0,0,7.8,55.7l62.177,74.435c.177.212.389.425.6.637a7.2,7.2,0,0,0,9.676.5,6.645,6.645,0,0,0,1.1-1.132l12.4-14.841h0l.283-.354,16.415-19.652h0l9.322-11.126h-.018l15.92-19.086,17.07-20.325h.018l19.4-23.137c.265-.318.548-.637.867-.973.106-.088.212-.195.3-.283a20.839,20.839,0,0,1,12.612-6,16.384,16.384,0,0,1,12.17,3.485c.159.142.318.283.5.425h0l.46.442a5.231,5.231,0,0,0,.46.425,19.44,19.44,0,0,1,2.459,27.347l-56.764,67.961-10.083-12.011-.142-.159-8.314-9.906-9.3,11.162,6.386,7.606L139.616,130.3a7.373,7.373,0,0,0,10.295.867,7.328,7.328,0,0,0,1.274-1.38l17.441-21,44.364-53.1A33.86,33.86,0,0,0,209.08,8.475c-.106-.106-.212-.195-.354-.318-.46-.442-.938-.867-1.415-1.291a30.694,30.694,0,0,0-22.766-6.7,35.354,35.354,0,0,0-21.333,10.083c-.142.142-.283.3-.425.46-.548.566-1.079,1.132-1.574,1.734L150.247,25.491h0L122.016,59.26l-.071-.071-11.569,13.78h0l-9.34,11.126h0L89.167,98.228,75.653,114.219l-8.084-9.481-1.822-2.193-.035.035-6.9-8.084L18.765,46.524A19.421,19.421,0,0,1,48.571,21.618L94.1,75.834l9.34-11.109L84.993,42.738l17.742-21.121c.265-.318.548-.637.867-.973.106-.088.212-.195.3-.283a20.839,20.839,0,0,1,12.612-6,16.384,16.384,0,0,1,12.17,3.485c.159.142.318.283.5.425h0l.46.442a5.229,5.229,0,0,0,.46.425,19.252,19.252,0,0,1,5.466,7.412l9.817-11.675a33.519,33.519,0,0,0-5.767-6.4" transform="translate(-0.003 0.002)" fill="#39b5cb" fill-rule="evenodd"></path><path id="Trazado_386" data-name="Trazado 386" d="M161.86,23.883h18.007l15.389,52.554L212.238,23.6h14.947l17.123,52.837L259.98,23.883h17.565l-25.118,77.23H236.755L219.632,48.718,202.35,101.113H186.678L161.86,23.883Z" transform="translate(124.447 18.15)" fill="#fff"></path><g id="Grupo_210" data-name="Grupo 210" transform="translate(409.828 40.441)"><path id="Trazado_387" data-name="Trazado 387" d="M231.708,63.067v-.283c0-21.917,15.531-39.924,37.447-39.924,24.393,0,36.722,19.157,36.722,41.233,0,1.592-.141,3.2-.283,4.935H249.273c1.893,12.488,10.737,19.458,22.058,19.458,8.561,0,14.664-3.184,20.749-9.145l10.312,9.145c-7.252,8.7-17.282,14.363-31.362,14.363-22.217,0-39.34-16.115-39.34-39.765Zm56.764-5.66c-1.167-11.321-7.836-20.183-19.458-20.183-10.737,0-18.29,8.278-19.882,20.183Z" transform="translate(-231.69 -22.86)" fill="#fff"></path><path id="Trazado_388" data-name="Trazado 388" d="M281.268,63.067v-.283c0-21.917,15.531-39.924,37.447-39.924,24.393,0,36.722,19.157,36.722,41.233,0,1.592-.142,3.2-.283,4.935H298.833c1.892,12.488,10.737,19.458,22.058,19.458,8.561,0,14.664-3.184,20.749-9.145l10.313,9.145c-7.252,8.7-17.282,14.363-31.362,14.363-22.217,0-39.34-16.115-39.34-39.765Zm56.764-5.66c-1.167-11.321-7.836-20.183-19.458-20.183-10.737,0-18.29,8.278-19.882,20.183Z" transform="translate(-193.584 -22.86)" fill="#fff"></path></g><path id="Trazado_389" data-name="Trazado 389" d="M327.55,23.883h18.007l15.389,52.554L377.928,23.6h14.947L410,76.437,425.67,23.883h17.565l-25.118,77.23H402.445L385.322,48.718l-17.265,52.395H352.385l-24.817-77.23Z" transform="translate(251.844 18.15)" fill="#39b5cb"></path><g id="Grupo_211" data-name="Grupo 211" transform="translate(702.916 40.441)"><path id="Trazado_390" data-name="Trazado 390" d="M397.38,63.208v-.283c0-21.917,17.424-40.065,40.932-40.065S479.1,40.708,479.1,62.642v.283c0,21.775-17.424,39.924-41.074,39.924S397.38,85,397.38,63.226Zm64.158,0v-.283c0-13.5-9.729-24.676-23.508-24.676s-23.084,11.038-23.084,24.393v.283c0,13.355,9.729,24.676,23.367,24.676S461.538,76.422,461.538,63.208Z" transform="translate(-397.38 -22.86)" fill="#39b5cb"></path><path id="Trazado_391" data-name="Trazado 391" d="M451.29,63.208v-.283c0-21.917,17.424-40.065,40.932-40.065s40.791,17.848,40.791,39.782v.283c0,21.775-17.424,39.924-41.074,39.924S451.29,85,451.29,63.226Zm64.158,0v-.283c0-13.5-9.729-24.676-23.509-24.676s-23.084,11.038-23.084,24.393v.283c0,13.355,9.729,24.676,23.367,24.676S515.448,76.422,515.448,63.208Z" transform="translate(-355.929 -22.86)" fill="#39b5cb"></path></g></g></g></g><path id="Trazado_3969" data-name="Trazado 3969" d="M19.76.325h2.73L35.815-39.2,49.14.325h2.73L68.38-45.5H64.87l-14.3,40.5L37.245-45.63h-2.6L21.32-5.005,7.02-45.5H3.25ZM85.8.78c6.37,0,10.335-2.6,13.715-6.24l-2.21-1.95A14.889,14.889,0,0,1,85.93-2.21c-6.5,0-12.415-4.81-13-13.065h27.5a8.287,8.287,0,0,0,.065-1.3c0-9.815-5.915-17.355-15.21-17.355-8.97,0-15.73,7.67-15.73,17.29v.13C69.55-6.175,77.09.78,85.8.78ZM72.93-18.135c.585-7.345,5.655-12.87,12.22-12.87,7.605,0,11.44,6.175,11.895,12.87Zm33.6-10.855h1.885l4.615-16.185V-45.5H108.81ZM121.485,0h3.185V-13.585c0-10.79,6.695-16.575,14.365-16.575h.325v-3.51c-6.565-.26-12.09,4.03-14.69,9.945V-33.15h-3.185ZM158.21.78c6.37,0,10.335-2.6,13.715-6.24l-2.21-1.95a14.889,14.889,0,0,1-11.375,5.2c-6.5,0-12.415-4.81-13-13.065h27.5a8.287,8.287,0,0,0,.065-1.3c0-9.815-5.915-17.355-15.21-17.355-8.97,0-15.73,7.67-15.73,17.29v.13C141.96-6.175,149.5.78,158.21.78ZM145.34-18.135c.585-7.345,5.655-12.87,12.22-12.87,7.605,0,11.44,6.175,11.9,12.87Z" transform="translate(803 5356)" fill="#fff"></path></g></g></svg>