<svg xmlns="http://www.w3.org/2000/svg" xmlns:xlink="http://www.w3.org/1999/xlink" width="336" height="350" viewBox="0 0 336 350"><defs><clipPath id="clip-path"><path id="Trazado_5817" data-name="Trazado 5817" d="M191.892,114.743,190.2,130.475l-1.929,2.776-1.929,28.688-1.688-52.749-1.929,21.285-1.929-1.851-1.688.925-1.688,22.21-1.929-1.851-1.929-6.478-1.929-31.464L170.191,138.8l-1.929-1.851-2.17,5.552-1.688-2.776-1.688-33.315L160.788,127.7,159.1,101.787,157.171,138.8l-3.617,12.956-1.688,11.1-1.929,2.776-1.929-9.254-1.688-48.122-1.929,45.345-1.688-3.7-3.617,7.4-1.929-1.851-1.929-10.18-1.688-24.061-1.929,24.061-1.688,12.03L128,162.865l-1.688-18.508-1.929.925-1.929-7.4-1.688-24.061-1.929,20.359-1.688,6.478-1.929-10.18-1.929-3.7L111.6,144.356l-1.688,9.254-1.929-17.583L106.3,151.76l-1.929,6.478-1.929-2.776L100.75,131.4l-1.688,4.627-2.17-8.329-1.688-16.657L93.276,131.4l-1.688,9.254L89.9,165.641l-1.929,8.329-1.929,16.657-1.688-9.254-1.929-7.4-1.688,11.1-1.929-4.627L76.88,199.881l-1.688,8.329-1.688-3.7-1.929.925-1.929-18.508-1.688,12.03-1.688,9.254-3.858,1.851-1.929,1.851L58.8,202.658l-1.929-7.4-1.929,10.18-1.688,10.18-1.688,4.627-2.17-5.552-1.688-6.478-1.688,1.851-1.929-14.807-1.929,8.329-1.688,13.881-1.929-.925-1.688,3.7-1.929-.925-1.688,6.478L31.31,208.21l-1.688,11.1-1.929-3.7-1.929,2.776-1.447-2.776-2.17,2.776-1.688-8.329-3.617,90.691-1.929-6.478-1.929-.925L11.3,296.124H9.609l-1.929,7.4L5.752,282.243,4.064,297.05l-1.688-4.627-1.929-3.7v28.688H274.111V39.785l-1.929,21.285-1.929.925-1.929,34.24h-1.688l-1.688-11.1-2.17-.925-1.688-10.18L259.4,90.682l-1.929,4.627-1.929-10.18-1.688,23.135L250,94.384l-1.688-36.091-1.929,32.39L244.7,84.2l-1.929-10.18-1.688,35.166H239.15l-1.688-4.627L235.533,76.8l-1.688,22.21-1.929,8.329-1.688-12.03L228.3,97.16l-1.929-13.881-1.688,24.061-1.929-40.718-1.688,16.657-1.929,38.867-1.688-.925-1.929-9.254-3.617-9.254L210.216,73.1l-1.929,31.464-1.929-1.851-1.688,6.478L202.983,85.13,201.054,76.8l-1.929-.925L197.2,36.083,195.508,18.5Z" transform="translate(-0.447 -18.5)" fill="none"></path></clipPath><linearGradient id="linear-gradient" x1="0.5" x2="0.5" y2="1" gradientUnits="objectBoundingBox"><stop offset="0" stop-color="#fff"></stop><stop offset="1" stop-color="#fff" stop-opacity="0.349"></stop></linearGradient><clipPath id="clip-path-2"><rect id="Rect&#xE1;ngulo_210" data-name="Rect&#xE1;ngulo 210" width="274" height="316.492" fill="none"></rect></clipPath></defs><g id="stat02mov" transform="translate(9178 6481.564)"><text id="_40K" data-name="40K" transform="translate(-9178 -6468.564)" fill="#fff" font-size="14" font-family="ProximaNova-Regular, Proxima Nova" opacity="0.5"><tspan x="0" y="0">40K</tspan></text><text id="_24K" data-name="24K" transform="translate(-9178 -6309.017)" fill="#fff" font-size="14" font-family="ProximaNova-Regular, Proxima Nova" opacity="0.5"><tspan x="0" y="0">24K</tspan></text><text id="_32K" data-name="32K" transform="translate(-9178 -6388.485)" fill="#fff" font-size="14" font-family="ProximaNova-Regular, Proxima Nova" opacity="0.5"><tspan x="0" y="0">32K</tspan></text><text id="_16K" data-name="16K" transform="translate(-9178 -6232.145)" fill="#fff" font-size="14" font-family="ProximaNova-Regular, Proxima Nova" opacity="0.5"><tspan x="0" y="0">16K</tspan></text><text id="_8K" data-name="8K" transform="translate(-9178 -6152.438)" fill="#fff" font-size="14" font-family="ProximaNova-Regular, Proxima Nova" opacity="0.5"><tspan x="0" y="0">8K</tspan></text><text id="dic_21" data-name="dic 21" transform="translate(-9137.488 -6134.564)" fill="#fff" font-size="14" font-family="ProximaNova-Regular, Proxima Nova" opacity="0.5"><tspan x="-17.36" y="0">dic 21</tspan></text><text id="may_21" data-name="may 21" transform="translate(-8864 -6134.564)" fill="#fff" font-size="14" font-family="ProximaNova-Regular, Proxima Nova" opacity="0.5"><tspan x="-21.07" y="0">may 21</tspan></text><g id="Grupo_693" data-name="Grupo 693" transform="translate(-9138 -6473.747)"><line id="L&#xED;nea_135" data-name="L&#xED;nea 135" x1="273.664" transform="translate(0.108 315.785)" fill="none" stroke="rgba(255,255,255,0.35)" stroke-miterlimit="10" stroke-width="1"></line><line id="L&#xED;nea_134" data-name="L&#xED;nea 134" x1="273.664" transform="translate(0.108 237.317)" fill="none" stroke="rgba(255,255,255,0.35)" stroke-miterlimit="10" stroke-width="1"></line><line id="L&#xED;nea_133" data-name="L&#xED;nea 133" x1="273.664" transform="translate(0.108 158.04)" fill="none" stroke="rgba(255,255,255,0.35)" stroke-miterlimit="10" stroke-width="1"></line><line id="L&#xED;nea_132" data-name="L&#xED;nea 132" x1="273.664" transform="translate(0.108 79.572)" fill="none" stroke="rgba(255,255,255,0.35)" stroke-miterlimit="10" stroke-width="1"></line><line id="L&#xED;nea_131" data-name="L&#xED;nea 131" x1="273.664" transform="translate(0.108 0.295)" fill="none" stroke="rgba(255,255,255,0.35)" stroke-miterlimit="10" stroke-width="1"></line><g id="Grupo_690" data-name="Grupo 690" transform="translate(0.5 0.365)" opacity="0.5"><line id="L&#xED;nea_58" data-name="L&#xED;nea 58" y2="316.127" transform="translate(0)" fill="none" stroke="#fff" stroke-miterlimit="10" stroke-width="1" stroke-dasharray="5 5"></line><line id="L&#xED;nea_136" data-name="L&#xED;nea 136" y2="316.127" transform="translate(90.362)" fill="none" stroke="#fff" stroke-miterlimit="10" stroke-width="1" stroke-dasharray="5 5"></line><line id="L&#xED;nea_137" data-name="L&#xED;nea 137" y2="316.127" transform="translate(181.638)" fill="none" stroke="#fff" stroke-miterlimit="10" stroke-width="1" stroke-dasharray="5 5"></line><line id="L&#xED;nea_59" data-name="L&#xED;nea 59" y2="316.127" transform="translate(272)" fill="none" stroke="#fff" stroke-miterlimit="10" stroke-width="1" stroke-dasharray="5 5"></line></g><g id="Grupo_691" data-name="Grupo 691" transform="translate(0.108 17.12)" clip-path="url(#clip-path)"><rect id="Rect&#xE1;ngulo_209" data-name="Rect&#xE1;ngulo 209" width="273.906" height="299.834" transform="translate(-0.108 -0.463)" opacity="0.55" fill="url(#linear-gradient)"></rect></g><g id="Grupo_692" data-name="Grupo 692" clip-path="url(#clip-path-2)"><path id="Trazado_5818" data-name="Trazado 5818" d="M.447,288.721l1.929,3.7,1.688,4.627,1.688-14.807,1.929,21.285,1.929-7.4H11.3l1.688-2.776,1.929.925,1.929,6.478,3.617-90.691,1.688,8.329,2.17-2.776,1.447,2.776,1.929-2.776,1.929,3.7,1.688-11.1,1.929,17.583,1.688-6.478,1.929.925,1.688-3.7,1.929.925,1.688-13.881,1.929-8.329,1.929,14.807,1.688-1.851,1.688,6.478,2.17,5.552,1.688-4.627,1.688-10.18,1.929-10.18,1.929,7.4,1.688,9.254,1.929-1.851,3.858-1.851,1.688-9.254,1.688-12.03,1.929,18.508,1.929-.925,1.688,3.7,1.688-8.329,1.929-19.434,1.929,4.627,1.688-11.1,1.929,7.4,1.688,9.254,1.929-16.657,1.929-8.329,1.688-24.986,1.688-9.254,1.929-20.359L96.893,127.7l2.17,8.329,1.688-4.627,1.688,24.061,1.929,2.776,1.929-6.478,1.688-15.732,1.929,17.583,1.688-9.254,1.688-17.583,1.929,3.7,1.929,10.18,1.688-6.478,1.929-20.359,1.688,24.061,1.929,7.4,1.929-.925L128,162.865l1.929-5.553,1.688-12.03,1.929-24.061,1.688,24.061,1.929,10.18,1.929,1.851,3.617-7.4,1.688,3.7,1.929-45.345,1.688,48.122,1.929,9.254,1.929-2.776,1.688-11.1,3.617-12.956,1.929-37.017,1.688,25.912,1.929-21.285,1.688,33.315,1.688,2.776,2.17-5.552,1.929,1.851,1.447-26.837,1.929,31.464,1.929,6.478,1.929,1.851,1.688-22.21,1.688-.925,1.929,1.851,1.929-21.285,1.688,52.749,1.929-28.688,1.929-2.776,1.688-15.732L195.508,18.5,197.2,36.083l1.929,39.793,1.929.925,1.929,8.329,1.688,24.061,1.688-6.478,1.929,1.851L210.216,73.1l1.688,29.613,3.617,9.254,1.929,9.254,1.688.925,1.929-38.867,1.688-16.657,1.929,40.718,1.688-24.061L228.3,97.16l1.929-1.851,1.688,12.03,1.929-8.329,1.688-22.21,1.929,27.762,1.688,4.627h1.929l1.688-35.166L244.7,84.2l1.688,6.478,1.929-32.39L250,94.384l3.858,13.881,1.688-23.135,1.929,10.18,1.929-4.627,1.688-16.657,1.688,10.18,2.17.925,1.688,11.1h1.688l1.929-34.24,1.929-.925,1.929-21.285" transform="translate(-0.339 -1.38)" fill="none" stroke="#fff" stroke-linejoin="round" stroke-miterlimit="10" stroke-width="2"></path></g></g></g></svg>