<svg xmlns="http://www.w3.org/2000/svg" xmlns:xlink="http://www.w3.org/1999/xlink" width="341" height="306" viewBox="0 0 341 306"><defs><clipPath id="clip-path"><rect id="Rect&#xE1;ngulo_178" data-name="Rect&#xE1;ngulo 178" width="300" height="268.971" fill="none" stroke="rgba(255,255,255,0.35)" stroke-width="1"></rect></clipPath><clipPath id="clip-path-2"><path id="Trazado_5815" data-name="Trazado 5815" d="M295.1,132.89l-10.061-21.8-20.653,32.127-10.327-8.032L244,134.038l-10.326,4.59-9.8-2.295-11.121,2.295L202.428,128.3l-10.591,32.127L181.51,163.87l-10.591-27.538-10.062-13.769L150.53,152.4l-20.653-16.064L119.55,159.28l-10.591-9.18L98.632,106.5l-9.8,14.916L78.244,131.743l-10.328,3.442L57.591,123.711,47,146.659v109H347V153.543l-10.062-45.9L326.346,139.77l-10.327,1.147L305.693,106.5Z" transform="translate(-47 -106.5)" fill="none"></path></clipPath><linearGradient id="linear-gradient" x1="0.554" y1="1" x2="0.555" gradientUnits="objectBoundingBox"><stop offset="0" stop-color="#ffd1eb" stop-opacity="0.349"></stop><stop offset="1" stop-color="#ffa3d4"></stop></linearGradient></defs><g id="stat01mov" transform="translate(9211 7283)"><text id="_4K" data-name="4K" transform="translate(-9211 -7270)" fill="#fff" font-size="14" font-family="ProximaNova-Regular, Proxima Nova" opacity="0.5"><tspan x="0" y="0">4K</tspan></text><text id="_3K" data-name="3K" transform="translate(-9211 -7203)" fill="#fff" font-size="14" font-family="ProximaNova-Regular, Proxima Nova" opacity="0.5"><tspan x="0" y="0">3K</tspan></text><text id="_2K" data-name="2K" transform="translate(-9211 -7136)" fill="#fff" font-size="14" font-family="ProximaNova-Regular, Proxima Nova" opacity="0.5"><tspan x="0" y="0">2K</tspan></text><text id="_1K" data-name="1K" transform="translate(-9211 -7068)" fill="#fff" font-size="14" font-family="ProximaNova-Regular, Proxima Nova" opacity="0.5"><tspan x="0" y="0">1K</tspan></text><text id="_0K" data-name="0K" transform="translate(-9211 -7001.028)" fill="#fff" font-size="14" font-family="ProximaNova-Regular, Proxima Nova" opacity="0.5"><tspan x="0" y="0">0K</tspan></text><text id="apr" transform="translate(-9181.017 -6980)" fill="#fff" font-size="14" font-family="ProximaNova-Regular, Proxima Nova" opacity="0.5"><tspan x="0" y="0">apr</tspan></text><text id="_1" data-name="1" transform="translate(-8875.373 -6980)" fill="#fff" font-size="14" font-family="ProximaNova-Regular, Proxima Nova" opacity="0.5"><tspan x="0" y="0">1</tspan></text><text id="_10" data-name="10" transform="translate(-9102.657 -6980)" fill="#fff" font-size="14" font-family="ProximaNova-Regular, Proxima Nova" opacity="0.5"><tspan x="0" y="0">10</tspan></text><text id="_18" data-name="18" transform="translate(-9027.44 -6980)" fill="#fff" font-size="14" font-family="ProximaNova-Regular, Proxima Nova" opacity="0.5"><tspan x="0" y="0">18</tspan></text><text id="_25" data-name="25" transform="translate(-8955.246 -6980)" fill="#fff" font-size="14" font-family="ProximaNova-Regular, Proxima Nova" opacity="0.5"><tspan x="0" y="0">25</tspan></text><g id="Grupo_683" data-name="Grupo 683"><g id="Grupo_579" data-name="Grupo 579" transform="translate(-9170.994 -7275)" clip-path="url(#clip-path)"><line id="L&#xED;nea_43" data-name="L&#xED;nea 43" x1="299.816" transform="translate(0 268.62)" fill="none" stroke="rgba(255,255,255,0.35)" stroke-miterlimit="10" stroke-width="1"></line><line id="L&#xED;nea_44" data-name="L&#xED;nea 44" x2="299.816" transform="translate(0 201.62)" fill="none" stroke="rgba(255,255,255,0.35)" stroke-miterlimit="10" stroke-width="1"></line><line id="L&#xED;nea_45" data-name="L&#xED;nea 45" x2="299.816" transform="translate(0 134.62)" fill="none" stroke="rgba(255,255,255,0.35)" stroke-miterlimit="10" stroke-width="1"></line><line id="L&#xED;nea_46" data-name="L&#xED;nea 46" x2="299.816" transform="translate(0 67.62)" fill="none" stroke="rgba(255,255,255,0.35)" stroke-miterlimit="10" stroke-width="1"></line><line id="L&#xED;nea_47" data-name="L&#xED;nea 47" x2="299.816" transform="translate(0 0.62)" fill="none" stroke="rgba(255,255,255,0.35)" stroke-miterlimit="10" stroke-width="1"></line></g><g id="Grupo_682" data-name="Grupo 682" transform="translate(-9170.994 -7154.133)" clip-path="url(#clip-path-2)"><rect id="Rect&#xE1;ngulo_205" data-name="Rect&#xE1;ngulo 205" width="300" height="150.309" transform="translate(0 -0.574)" opacity="0.55" fill="url(#linear-gradient)"></rect></g><path id="Trazado_5816" data-name="Trazado 5816" d="M47,146.659l10.591-22.948,10.326,11.474,10.328-3.442,10.591-10.327,9.8-14.916,10.328,43.6,10.591,9.179,10.326-22.948L150.53,152.4l10.328-29.832,10.062,13.769,10.59,27.533,10.327-3.442L202.428,128.3l10.326,10.327,11.121-2.295,9.8,2.295L244,134.038l10.062,1.147,10.327,8.032,20.653-32.127,10.061,21.8,10.591-26.39,10.327,34.422,10.327-1.147,10.592-32.127,10.06,45.9" transform="translate(-9217.994 -7260.633)" fill="none" stroke="#ffcc9a" stroke-linejoin="round" stroke-miterlimit="10" stroke-width="2"></path></g><line id="L&#xED;nea_123" data-name="L&#xED;nea 123" y2="266.667" transform="translate(-9170.5 -7274)" fill="none" stroke="rgba(255,255,255,0.35)" stroke-miterlimit="10" stroke-width="1" stroke-dasharray="5 5"></line><line id="L&#xED;nea_126" data-name="L&#xED;nea 126" y2="266.667" transform="translate(-9095.5 -7274)" fill="none" stroke="rgba(255,255,255,0.35)" stroke-miterlimit="10" stroke-width="1" stroke-dasharray="5 5"></line><line id="L&#xED;nea_128" data-name="L&#xED;nea 128" y2="266.667" transform="translate(-9020.5 -7274)" fill="none" stroke="rgba(255,255,255,0.35)" stroke-miterlimit="10" stroke-width="1" stroke-dasharray="5 5"></line><line id="L&#xED;nea_130" data-name="L&#xED;nea 130" y2="266.667" transform="translate(-8945.5 -7274)" fill="none" stroke="rgba(255,255,255,0.35)" stroke-miterlimit="10" stroke-width="1" stroke-dasharray="5 5"></line><line id="L&#xED;nea_124" data-name="L&#xED;nea 124" y2="266.667" transform="translate(-8870.5 -7274)" fill="none" stroke="rgba(255,255,255,0.35)" stroke-miterlimit="10" stroke-width="1" stroke-dasharray="5 5"></line></g></svg>