<svg xmlns="http://www.w3.org/2000/svg" xmlns:xlink="http://www.w3.org/1999/xlink" width="1351" height="366.312" viewBox="0 0 1351 366.312"><defs><clipPath id="clip-path"><rect id="Rect&#xE1;ngulo_183" data-name="Rect&#xE1;ngulo 183" width="1299.998" height="330.565" fill="none" stroke="rgba(160,160,181,0.35)" stroke-width="1"></rect></clipPath><clipPath id="clip-path-2"><path id="Trazado_4210" data-name="Trazado 4210" d="M499.268,60.676l-1.14,52.435-2.28,67.253-3.42-7.979-1.14,22.8-1.14,5.7-2.28,6.839-4.56-9.119-3.42,21.658-4.56,11.4-3.42-11.4-3.42-1.14L465.071,210l-2.28,9.119-2.28,3.42h-4.56l-3.42,7.979-2.28-7.979-4.56,14.818-3.42-4.56-1.14,2.28-3.42-2.28-2.28,4.56-3.42-10.259-2.28,3.42-2.28,9.119-2.28,1.14-2.28,5.7-2.28,1.14-3.42-3.42-1.14-5.7-5.7-11.4-1.14,6.839-2.28,12.539-1.14,6.839-5.7-5.7-3.42-6.839-4.56,3.42-1.14,10.259h-3.42l-2.28,6.839-2.28,1.14-5.7-11.4-4.56,6.839-3.42-2.28-1.14-14.818-5.7-12.539-3.42,1.14-1.14,5.7-5.7,6.839-5.7-5.7-4.56-15.958-1.14-13.679-1.14-12.539-4.56,9.119-2.28-7.979-3.42,1.14-4.56-39.9-2.28,2.28-3.42-15.958-2.28,18.238-2.28,9.119-3.42,31.917-2.28,15.958-2.28,5.7h-2.28l-2.28,4.56-5.7-9.119v12.539l-2.28,12.539-2.28,7.979-1.14-7.979-1.14-12.539-3.42,17.1-1.14,7.979-2.28-15.958v-45.6l-4.56,6.839-1.14,21.658-3.42-5.7h-1.14l-5.7,7.979-1.14,4.56-3.42,4.56-2.28,6.839-3.42-5.7-2.28,2.28-2.28,4.56-2.28-4.56-2.28,4.56-3.42-2.28-2.28,5.7-5.7-10.259-4.56-4.56-4.56,7.979-3.42,3.42-4.56-12.539-2.28,5.7-2.28,36.476-2.28,1.14-3.42-12.539-2.28-39.9-4.56-22.8-5.7,10.259-4.56-3.42-2.28,9.119-2.28-5.7-3.42-29.637-4.56,27.357-2.28-2.28-3.42-41.036-3.42-38.756-3.42-4.56L163,160.985l-2.28,11.4-4.56-1.14-4.56-23.937-2.28-31.917-5.7,61.554-2.28,11.4-4.56,51.295-5.7-26.217-2.28,22.8-2.28-31.917-4.56,26.217-3.42,34.2-4.56-2.28-3.42,21.658-3.42,10.259-5.7-1.14-2.28-3.42-3.42,5.7-3.42,18.238-7.979,9.119-5.7-4.56-4.56,4.56-6.839,1.14-5.7-6.839-3.42,2.28-6.839,2.28-5.7-4.56-4.56,3.42-7.979-4.56-4.56,4.56-4.56-3.42-9.119,5.7-4.56-2.28-3.42,2.28H0v4.56H1299.464V206.58l-3.42-9.119-1.14-9.119h-2.28l-3.42,2.28v4.56l-2.28,5.7-4.56-15.958-2.28,6.839-5.7-23.937-1.14,10.259-3.42,9.119-2.28-6.839-2.28,7.979-2.28-7.979-1.14-19.378-2.28-19.378-2.28,18.238-2.28-17.1-3.42,5.7-3.42,30.777-3.42-2.28h-2.28l-2.28-5.7-1.14-9.119-1.14,27.357-1.14-5.7-2.28-6.839-1.14-10.259-1.14-10.259-2.28,4.56-1.14,9.119-1.14,18.238-3.42-30.777-2.28,15.958-1.14,13.679-1.14,6.839-1.14,1.14-2.28-2.28-2.28-4.56-1.14-11.4v-11.4l-3.42,21.658-1.14-12.539-1.14-10.259h-2.28l-2.28,2.28-1.14,4.56-2.28,10.259-1.14-5.7-1.14-5.7-2.28,6.839-2.28,13.679-1.14-11.4-1.14-10.259-3.42,13.679h-2.28l-1.14-1.14-2.28-3.42-2.28-10.259-2.28-7.979-2.28,28.5-1.14-35.336V133.628l-2.28-6.839-1.14-4.56-3.42,13.679-4.56,15.958-2.28,21.658-2.28-7.979-1.14-6.839-1.14-10.259-2.28-5.7L1149,180.363l-2.28,11.4-2.28,7.979-3.42-9.119-4.559,1.14-2.28-20.518-4.56,42.176-5.7-29.637-3.42,5.7-1.14-18.238-2.28-5.7-3.42,19.378H1109.1l-1.14,15.958-3.42,6.839-3.42-6.839-2.28-30.777h-3.42l-1.14,6.839-3.42,17.1-2.28,26.217-2.28-9.119-4.56-64.973-4.56,44.455-4.559-3.42h-3.42l-2.28-7.979-3.42-15.958-2.28,22.8-3.42-20.518-1.14-6.839-3.42-3.42-2.28,19.378-2.28-10.259-2.28-3.42-2.28,10.259-3.42,28.5-1.14-11.4-3.42-6.839-1.14,19.378-4.56,3.42-2.28-15.958-4.56,5.7-2.28,10.259-5.7-5.7-2.28-13.679-4.56,2.28-4.56,11.4-2.28,7.979-1.14,6.839-2.28-28.5-2.28,27.357-3.42-5.7h-2.28l-2.28-13.679L986,220.259l-3.42-13.679-2.28,1.14-2.28,6.839-2.28-34.2-2.28,22.8-3.42-2.28-2.28,5.7-2.28-1.14-2.28-10.259-3.42,5.7-1.14-29.637L956.36,181.5l-1.14,5.7-2.28-13.679-3.42,4.56-1.14,4.56-3.42-1.14V170.1l-2.28-14.818-2.28-6.839-2.28,4.56-1.14,31.917-3.42,12.539-3.42-2.28-2.28-14.818-2.28-36.476-2.28,5.7-2.28-1.14-3.42-14.818-1.14,20.518-3.42,13.679-2.28-1.14-3.42-19.378-2.28,2.28-2.28,5.7-2.28,1.14-2.28,17.1-3.42-2.28-1.14-26.217-3.42,22.8-2.28-38.756-4.56,36.476-2.28,14.818-3.42,20.518-2.28,3.42-3.42-56.994-2.28,46.735-2.28,3.42-2.28-6.839-3.42-1.14L860.61,215.7l-3.42,1.14-2.28-10.259-2.28,10.259-3.42-3.42-1.14,41.036-3.42,2.28-2.28-12.539-2.28,7.979-2.28-4.56-2.28-15.958-1.14-5.7-2.28-4.56-2.28,17.1-3.42-14.818-1.14-10.259-2.28-5.7-3.42,5.7-2.28-9.119-2.28-7.979-2.28-4.56-3.42,7.979-2.28,2.28-4.56-12.539-2.28-9.119-3.42,7.979-2.28,4.56-2.28,9.119-2.28,18.238-3.42-5.7-2.28-23.937-4.56-18.238-5.7,6.839v18.238l-1.14,22.8-2.28-20.518-2.28-14.818-1.14-6.839-5.7-9.119-1.14,21.658-4.56,2.28-1.14,7.979-2.28,6.839-3.42-5.7-2.28-2.28-2.28,11.4-2.28,3.42-7.979-9.119-2.28-20.518-3.42-10.259-1.14-11.4-2.28,13.679-1.14,10.259-3.42,7.979v11.4l-1.14,7.979-3.42-3.42v-5.7l-1.14-9.119-1.14-5.7-2.28-4.56-3.42,27.357-1.14,11.4-7.979-5.7-2.28-2.28-1.14-5.7-1.14-3.42-2.28,7.979-3.42,7.979-1.14,6.839-3.42,5.7-2.28-6.839-2.28-6.839-1.14-13.679-2.28-15.958-1.14,18.238-1.14,9.119-2.28,7.979-2.28-2.28-3.42,2.28-2.28,3.42-2.28-18.238-1.14-12.539-1.14-4.56-3.42,2.28-1.14,19.378-1.14,5.7-3.42,9.119-3.42-5.7-1.14-5.7-2.28-4.56-3.42,1.14-2.28,3.42-1.14,4.56-1.14-14.818-2.28-5.7-1.14-4.56-2.28,25.077-1.14-5.7L626.935,210l-1.14-3.42-2.28-3.42-2.28,17.1-2.28,12.539-2.28,11.4-1.14-4.56-2.28-12.539-2.28-6.839-2.28-4.56-2.28,5.7-1.14,5.7-1.14,6.839-3.42-9.119L597.3,214.56l-1.14-3.42-1.14,7.979-1.14,6.839-3.42-11.4-2.28-3.42-4.56,5.7-3.42-5.7-1.14-2.28L576.78,221.4,574.5,211.14l-3.42-25.077-5.7-11.4-2.28-22.8-2.28,13.679-1.14,18.238-1.14,5.7-2.28-2.28-1.14-11.4-1.14-13.679-2.28-12.539-1.14-10.259-1.14,22.8-1.14,23.938-3.42,4.56-2.28,2.28-1.14-22.8-3.42-3.42-2.28-14.818-2.28,30.777L532.324,210l-1.14,25.077-2.28-10.259-1.14-6.839-1.14-13.679-1.14-31.917-2.28-43.315-1.14-10.259-1.14-5.7-3.42-3.42-1.14-38.756-3.42-4.56-2.28-35.336-2.28,13.679-2.28,21.658-1.14-11.4-1.14-11.4-1.14-12.539L500.408,18.5Z" transform="translate(0 -18.5)" fill="none" stroke="#707070" stroke-width="1"></path></clipPath><linearGradient id="linear-gradient" x1="0.5" x2="0.5" y2="1" gradientUnits="objectBoundingBox"><stop offset="0" stop-color="#39b5cb"></stop><stop offset="1" stop-color="#2e72ff" stop-opacity="0.349"></stop></linearGradient></defs><g id="stat03" transform="translate(-290 -8299.541)"><text id="_210K" data-name="210K" transform="translate(290 8395.57)" fill="#fff" font-size="14" font-family="ProximaNova-Regular, Proxima Nova" opacity="0.5"><tspan x="0" y="0">210K</tspan></text><text id="_280K" data-name="280K" transform="translate(290 8312.541)" fill="#fff" font-size="14" font-family="ProximaNova-Regular, Proxima Nova" opacity="0.5"><tspan x="0" y="0">280K</tspan></text><text id="_140K" data-name="140K" transform="translate(290 8477.6)" fill="#fff" font-size="14" font-family="ProximaNova-Regular, Proxima Nova" opacity="0.5"><tspan x="0" y="0">140K</tspan></text><text id="_70K" data-name="70K" transform="translate(290 8559.853)" fill="#fff" font-size="14" font-family="ProximaNova-Regular, Proxima Nova" opacity="0.5"><tspan x="0" y="0">70K</tspan></text><text id="_0K" data-name="0K" transform="translate(290 8642.882)" fill="#fff" font-size="14" font-family="ProximaNova-Regular, Proxima Nova" opacity="0.5"><tspan x="0" y="0">0K</tspan></text><text id="jan_2020" data-name="jan 2020" transform="translate(330 8662.853)" fill="#fff" font-size="14" font-family="ProximaNova-Regular, Proxima Nova" opacity="0.5"><tspan x="-27.727" y="0">jan 2020</tspan></text><text id="feb" transform="translate(406.5 8662.853)" fill="#fff" font-size="14" font-family="ProximaNova-Regular, Proxima Nova" opacity="0.5"><tspan x="-9.947" y="0">feb</tspan></text><text id="mar" transform="translate(483.5 8662.853)" fill="#fff" font-size="14" font-family="ProximaNova-Regular, Proxima Nova" opacity="0.5"><tspan x="-11.655" y="0">mar</tspan></text><text id="apr" transform="translate(559.5 8662.853)" fill="#fff" font-size="14" font-family="ProximaNova-Regular, Proxima Nova" opacity="0.5"><tspan x="-10.017" y="0">apr</tspan></text><text id="may" transform="translate(636.5 8662.853)" fill="#fff" font-size="14" font-family="ProximaNova-Regular, Proxima Nova" opacity="0.5"><tspan x="-12.775" y="0">may</tspan></text><text id="jun" transform="translate(713.5 8662.853)" fill="#fff" font-size="14" font-family="ProximaNova-Regular, Proxima Nova" opacity="0.5"><tspan x="-9.289" y="0">jun</tspan></text><text id="jul" transform="translate(790 8662.853)" fill="#fff" font-size="14" font-family="ProximaNova-Regular, Proxima Nova" opacity="0.5"><tspan x="-7.007" y="0">jul</tspan></text><text id="aug" transform="translate(866 8662.853)" fill="#fff" font-size="14" font-family="ProximaNova-Regular, Proxima Nova" opacity="0.5"><tspan x="-11.564" y="0">aug</tspan></text><text id="sep" transform="translate(943 8662.853)" fill="#fff" font-size="14" font-family="ProximaNova-Regular, Proxima Nova" opacity="0.5"><tspan x="-11.214" y="0">sep</tspan></text><text id="oct" transform="translate(1019 8662.853)" fill="#fff" font-size="14" font-family="ProximaNova-Regular, Proxima Nova" opacity="0.5"><tspan x="-9.527" y="0">oct</tspan></text><text id="nov" transform="translate(1095 8662.853)" fill="#fff" font-size="14" font-family="ProximaNova-Regular, Proxima Nova" opacity="0.5"><tspan x="-11.291" y="0">nov</tspan></text><text id="dec" transform="translate(1172 8662.853)" fill="#fff" font-size="14" font-family="ProximaNova-Regular, Proxima Nova" opacity="0.5"><tspan x="-11.431" y="0">dec</tspan></text><text id="jan_2021" data-name="jan 2021" transform="translate(1248 8662.853)" fill="#fff" font-size="14" font-family="ProximaNova-Regular, Proxima Nova" opacity="0.5"><tspan x="-25.816" y="0">jan 2021</tspan></text><text id="feb-2" data-name="feb" transform="translate(1325 8662.853)" fill="#fff" font-size="14" font-family="ProximaNova-Regular, Proxima Nova" opacity="0.5"><tspan x="-9.947" y="0">feb</tspan></text><text id="mar-2" data-name="mar" transform="translate(1401 8662.853)" fill="#fff" font-size="14" font-family="ProximaNova-Regular, Proxima Nova" opacity="0.5"><tspan x="-11.655" y="0">mar</tspan></text><text id="apr-2" data-name="apr" transform="translate(1478 8662.853)" fill="#fff" font-size="14" font-family="ProximaNova-Regular, Proxima Nova" opacity="0.5"><tspan x="-10.017" y="0">apr</tspan></text><text id="may-2" data-name="may" transform="translate(1554 8662.853)" fill="#fff" font-size="14" font-family="ProximaNova-Regular, Proxima Nova" opacity="0.5"><tspan x="-12.775" y="0">may</tspan></text><text id="jun-2" data-name="jun" transform="translate(1631 8662.853)" fill="#fff" font-size="14" font-family="ProximaNova-Regular, Proxima Nova" opacity="0.5"><tspan x="-9.289" y="0">jun</tspan></text><g id="Grupo_608" data-name="Grupo 608" transform="translate(-118.992 34.316)"><g id="Grupo_609" data-name="Grupo 609" transform="translate(449 8273)"><g id="Grupo_608-2" data-name="Grupo 608" clip-path="url(#clip-path)"><line id="L&#xED;nea_64" data-name="L&#xED;nea 64" x1="1299.464" transform="translate(0 330.42)" fill="none" stroke="rgba(160,160,181,0.35)" stroke-width="1"></line><line id="L&#xED;nea_65" data-name="L&#xED;nea 65" x1="1299.464" transform="translate(0 247.42)" fill="none" stroke="rgba(160,160,181,0.35)" stroke-width="1"></line><line id="L&#xED;nea_66" data-name="L&#xED;nea 66" x1="1299.464" transform="translate(0 165.419)" fill="none" stroke="rgba(160,160,181,0.35)" stroke-width="1"></line><line id="L&#xED;nea_67" data-name="L&#xED;nea 67" x1="1299.464" transform="translate(0 83.42)" fill="none" stroke="rgba(160,160,181,0.35)" stroke-width="1"></line><line id="L&#xED;nea_68" data-name="L&#xED;nea 68" x1="1299.464" transform="translate(0 0.42)" fill="none" stroke="rgba(160,160,181,0.35)" stroke-width="1"></line></g></g><g id="Grupo_611" data-name="Grupo 611" transform="translate(449 8294.088)"><g id="Grupo_610" data-name="Grupo 610" clip-path="url(#clip-path-2)"><rect id="Rect&#xE1;ngulo_184" data-name="Rect&#xE1;ngulo 184" width="1299.464" height="310.048" transform="translate(0 -0.57)" opacity="0.55" fill="url(#linear-gradient)"></rect></g></g><path id="Trazado_4211" data-name="Trazado 4211" d="M0,322.848H6.839l3.42-2.28,4.56,2.28,9.119-5.7,4.56,3.42,4.56-4.56,7.979,4.56,4.56-3.42,5.7,4.56,6.839-2.28,3.42-2.28,5.7,6.839,6.839-1.14,4.56-4.56,5.7,4.56,7.979-9.119,3.42-18.238,3.42-5.7,2.28,3.42,5.7,1.14,3.42-10.259,3.42-21.658,4.56,2.28,3.42-34.2,4.56-26.217,2.28,31.917,2.28-22.8,5.7,26.217,4.56-51.295,2.28-11.4,5.7-61.554,2.28,31.917,4.56,23.938,4.56,1.14,2.28-11.4,3.42-41.036,3.42,4.56,3.42,38.756,3.42,41.036,2.28,2.28,4.56-27.357,3.42,29.637,2.28,5.7,2.28-9.119,4.56,3.42,5.7-10.259,4.56,22.8,2.28,39.9,3.42,12.539,2.28-1.14,2.28-36.476,2.28-5.7,4.56,12.539,3.42-3.42,4.56-7.979,4.56,4.56,5.7,10.259,2.28-5.7,3.42,2.28,2.28-4.56,2.28,4.56,2.28-4.56,2.28-2.28,3.42,5.7,2.28-6.839,3.42-4.56,1.14-4.56,5.7-7.979h1.14l3.42,5.7,1.14-21.658,4.56-6.839v45.6l2.28,15.958,1.14-7.979,3.42-17.1,1.14,12.539,1.14,7.979,2.28-7.979,2.28-12.539V219.119l5.7,9.119,2.28-4.56h2.28l2.28-5.7,2.28-15.958,3.42-31.917,2.28-9.119,2.28-18.238,3.42,15.958,2.28-2.28,4.56,39.9,3.42-1.14,2.28,7.979,4.56-9.119,1.14,12.539,1.14,13.679,4.56,15.958,5.7,5.7,5.7-6.839,1.14-5.7,3.42-1.14,5.7,12.539,1.14,14.818,3.42,2.28,4.56-6.839,5.7,11.4,2.28-1.14,2.28-6.839h3.42l1.14-10.259,4.56-3.42,3.42,6.839,5.7,5.7,1.14-6.839,2.28-12.539,1.14-6.839,5.7,11.4,1.14,5.7,3.42,3.42,2.28-1.14,2.28-5.7,2.28-1.14,2.28-9.119,2.28-3.42,3.42,10.259,2.28-4.56,3.42,2.28,1.14-2.28,3.42,4.56,4.56-14.818,2.28,7.979,3.42-7.979h4.56l2.28-3.42,2.28-9.119,3.42,9.119,3.42,1.14,3.42,11.4,4.56-11.4,3.42-21.658,4.56,9.119,2.28-6.839,1.14-5.7,1.14-22.8,3.42,7.979,2.28-67.253,1.14-52.435,1.14-42.176,2.28,12.539,1.14,12.539,1.14,11.4,1.14,11.4,2.28-21.658,2.28-13.679,2.28,35.336,3.42,4.56,1.14,38.756,3.42,3.42,1.14,5.7,1.14,10.259,2.28,43.315,1.14,31.917,1.14,13.679,1.14,6.839,2.28,10.259L532.324,210l1.14-27.357,2.28-30.777,2.28,14.818,3.42,3.42,1.14,22.8,2.28-2.28,3.42-4.56,1.14-23.938,1.14-22.8,1.14,10.259,2.28,12.539,1.14,13.679,1.14,11.4,2.28,2.28,1.14-5.7,1.14-18.238,2.28-13.679,2.28,22.8,5.7,11.4,3.42,25.077,2.28,10.259,2.28-12.539,1.14,2.28,3.42,5.7,4.56-5.7,2.28,3.42,3.42,11.4,1.14-6.839,1.14-7.979,1.14,3.42,3.42,10.259,3.42,9.119,1.14-6.839,1.14-5.7,2.28-5.7,2.28,4.56,2.28,6.839,2.28,12.539,1.14,4.56,2.28-11.4,2.28-12.539,2.28-17.1,2.28,3.42,1.14,3.42,1.14,10.259,1.14,5.7,2.28-25.077,1.14,4.56,2.28,5.7,1.14,14.818,1.14-4.56,2.28-3.42,3.42-1.14,2.28,4.56,1.14,5.7,3.42,5.7,3.42-9.119,1.14-5.7,1.14-19.378,3.42-2.28,1.14,4.56,1.14,12.539,2.28,18.238,2.28-3.42,3.42-2.28,2.28,2.28,2.28-7.979,1.14-9.119,1.14-18.238,2.28,15.958,1.14,13.679,2.28,6.839,2.28,6.839,3.42-5.7,1.14-6.839,3.42-7.979,2.28-7.979,1.14,3.42,1.14,5.7,2.28,2.28,7.979,5.7,1.14-11.4,3.42-27.357,2.28,4.56,1.14,5.7,1.14,9.119v5.7l3.42,3.42,1.14-7.979v-11.4l3.42-7.979,1.14-10.259,2.28-13.679,1.14,11.4,3.42,10.259,2.28,20.518,7.979,9.119,2.28-3.42,2.28-11.4,2.28,2.28,3.42,5.7,2.28-6.839,1.14-7.979,4.56-2.28,1.14-21.658,5.7,9.119,1.14,6.839,2.28,14.818,2.28,20.518,1.14-22.8V179.223l5.7-6.839,4.56,18.238,2.28,23.938,3.42,5.7,2.28-18.238,2.28-9.119,2.28-4.56,3.42-7.979,2.28,9.119,4.56,12.539,2.28-2.28,3.42-7.979,2.28,4.56,2.28,7.979,2.28,9.119,3.42-5.7,2.28,5.7,1.14,10.259,3.42,14.818,2.28-17.1,2.28,4.56,1.14,5.7,2.28,15.958,2.28,4.56,2.28-7.979,2.28,12.539,3.42-2.28,1.14-41.036,3.42,3.42,2.28-10.259,2.28,10.259,3.42-1.14,1.14-26.217,3.42,1.14,2.28,6.839,2.28-3.42,2.28-46.735,3.42,56.994,2.28-3.42,3.42-20.518,2.28-14.818,4.56-36.476,2.28,38.756,3.42-22.8,1.14,26.217,3.42,2.28,2.28-17.1,2.28-1.14,2.28-5.7,2.28-2.28,3.42,19.378,2.28,1.14,3.42-13.679,1.14-20.518,3.42,14.818,2.28,1.14,2.28-5.7,2.28,36.476,2.28,14.818,3.42,2.28,3.42-12.539,1.14-31.917,2.28-4.56,2.28,6.839,2.28,14.818v11.4l3.42,1.14,1.14-4.56,3.42-4.56,2.28,13.679,1.14-5.7,2.28-10.259,1.14,29.637,3.42-5.7,2.28,10.259,2.28,1.14,2.28-5.7,3.42,2.28,2.28-22.8,2.28,34.2,2.28-6.839,2.28-1.14L986,220.259l2.28-27.357,2.28,13.679h2.28l3.42,5.7,2.28-27.357,2.28,28.5,1.14-6.839,2.28-7.979,4.56-11.4,4.56-2.28,2.28,13.679,5.7,5.7,2.28-10.259,4.56-5.7,2.28,15.958,4.56-3.42,1.14-19.378,3.42,6.839,1.14,11.4,3.42-28.5,2.28-10.259,2.28,3.42,2.28,10.259,2.28-19.378,3.42,3.42,1.14,6.839,3.42,20.518,2.28-22.8,3.42,15.958,2.28,7.979h3.42l4.559,3.42,4.56-44.455,4.56,64.973,2.28,9.119,2.28-26.217,3.42-17.1,1.14-6.839h3.42l2.28,30.777,3.42,6.839,3.42-6.839,1.14-15.958h4.559l3.42-19.378,2.28,5.7,1.14,18.238,3.42-5.7,5.7,29.637,4.56-42.176,2.28,20.518,4.559-1.14,3.42,9.119,2.28-7.979,2.28-11.4,3.42-37.616,2.28,5.7,1.14,10.259,1.14,6.839,2.28,7.979,2.28-21.658,4.56-15.958,3.42-13.679,1.14,4.56,2.28,6.839v19.378l1.14,35.336,2.28-28.5,2.28,7.979,2.28,10.259,2.28,3.42,1.14,1.14h2.28l3.42-13.679,1.14,10.259,1.14,11.4,2.28-13.679,2.28-6.839,1.14,5.7,1.14,5.7,2.28-10.259,1.14-4.56,2.28-2.28h2.28l1.14,10.259,1.14,12.539,3.42-21.658v11.4l1.14,11.4,2.28,4.56,2.28,2.28,1.14-1.14,1.14-6.839,1.14-13.679,2.28-15.958,3.42,30.777,1.14-18.238,1.14-9.119,2.28-4.56,1.14,10.259,1.14,10.259,2.28,6.839,1.14,5.7,1.14-27.357,1.14,9.119,2.28,5.7h2.28l3.42,2.28,3.42-30.777,3.42-5.7,2.28,17.1,2.28-18.238,2.28,19.378,1.14,19.378,2.28,7.979,2.28-7.979,2.28,6.839,3.42-9.119,1.14-10.259,5.7,23.938,2.28-6.839,4.56,15.958,2.28-5.7v-4.56l3.42-2.28h2.28l1.14,9.119,3.42,9.119" transform="translate(449 8275.588)" fill="none" stroke="#01d9ff" stroke-linejoin="round" stroke-miterlimit="10" stroke-width="2.5"></path></g><g id="Grupo_619" data-name="Grupo 619" transform="translate(0 686.236)"><line id="L&#xED;nea_69" data-name="L&#xED;nea 69" y2="330.146" transform="translate(330.5 7621.5)" fill="none" stroke="rgba(160,160,181,0.35)" stroke-width="1" stroke-dasharray="5 5"></line><line id="L&#xED;nea_70" data-name="L&#xED;nea 70" y2="330.146" transform="translate(406.5 7621.5)" fill="none" stroke="rgba(160,160,181,0.35)" stroke-width="1" stroke-dasharray="5 5"></line><line id="L&#xED;nea_71" data-name="L&#xED;nea 71" y2="330.146" transform="translate(483.5 7621.5)" fill="none" stroke="rgba(160,160,181,0.35)" stroke-width="1" stroke-dasharray="5 5"></line><line id="L&#xED;nea_72" data-name="L&#xED;nea 72" y2="330.146" transform="translate(559.5 7621.5)" fill="none" stroke="rgba(160,160,181,0.35)" stroke-width="1" stroke-dasharray="5 5"></line><line id="L&#xED;nea_73" data-name="L&#xED;nea 73" y2="330.146" transform="translate(636.5 7621.5)" fill="none" stroke="rgba(160,160,181,0.35)" stroke-width="1" stroke-dasharray="5 5"></line><line id="L&#xED;nea_74" data-name="L&#xED;nea 74" y2="330.146" transform="translate(712.5 7621.5)" fill="none" stroke="rgba(160,160,181,0.35)" stroke-width="1" stroke-dasharray="5 5"></line><line id="L&#xED;nea_75" data-name="L&#xED;nea 75" y2="330.146" transform="translate(789.5 7621.5)" fill="none" stroke="rgba(160,160,181,0.35)" stroke-width="1" stroke-dasharray="5 5"></line><line id="L&#xED;nea_76" data-name="L&#xED;nea 76" y2="330.146" transform="translate(865.5 7621.5)" fill="none" stroke="rgba(160,160,181,0.35)" stroke-width="1" stroke-dasharray="5 5"></line><line id="L&#xED;nea_77" data-name="L&#xED;nea 77" y2="330.146" transform="translate(942.5 7621.5)" fill="none" stroke="rgba(160,160,181,0.35)" stroke-width="1" stroke-dasharray="5 5"></line><line id="L&#xED;nea_78" data-name="L&#xED;nea 78" y2="330.146" transform="translate(1018.5 7621.5)" fill="none" stroke="rgba(160,160,181,0.35)" stroke-width="1" stroke-dasharray="5 5"></line><line id="L&#xED;nea_79" data-name="L&#xED;nea 79" y2="330.146" transform="translate(1094.5 7621.5)" fill="none" stroke="rgba(160,160,181,0.35)" stroke-width="1" stroke-dasharray="5 5"></line><line id="L&#xED;nea_80" data-name="L&#xED;nea 80" y2="330.146" transform="translate(1171.5 7621.5)" fill="none" stroke="rgba(160,160,181,0.35)" stroke-width="1" stroke-dasharray="5 5"></line><line id="L&#xED;nea_81" data-name="L&#xED;nea 81" y2="330.146" transform="translate(1247.5 7621.5)" fill="none" stroke="rgba(160,160,181,0.35)" stroke-width="1" stroke-dasharray="5 5"></line><line id="L&#xED;nea_82" data-name="L&#xED;nea 82" y2="330.146" transform="translate(1324.5 7621.5)" fill="none" stroke="rgba(160,160,181,0.35)" stroke-width="1" stroke-dasharray="5 5"></line><line id="L&#xED;nea_83" data-name="L&#xED;nea 83" y2="330.146" transform="translate(1400.5 7621.5)" fill="none" stroke="rgba(160,160,181,0.35)" stroke-width="1" stroke-dasharray="5 5"></line><line id="L&#xED;nea_84" data-name="L&#xED;nea 84" y2="330.146" transform="translate(1477.5 7621.5)" fill="none" stroke="rgba(160,160,181,0.35)" stroke-width="1" stroke-dasharray="5 5"></line><line id="L&#xED;nea_85" data-name="L&#xED;nea 85" y2="330.146" transform="translate(1553.5 7621.5)" fill="none" stroke="rgba(160,160,181,0.35)" stroke-width="1" stroke-dasharray="5 5"></line><line id="L&#xED;nea_86" data-name="L&#xED;nea 86" y2="330.146" transform="translate(1630.5 7621.5)" fill="none" stroke="rgba(160,160,181,0.35)" stroke-width="1" stroke-dasharray="5 5"></line></g></g></svg>