<svg xmlns="http://www.w3.org/2000/svg" xmlns:xlink="http://www.w3.org/1999/xlink" width="1351.488" height="424.874" viewBox="0 0 1351.488 424.874"><defs><clipPath id="clip-path"><path id="Trazado_4206" data-name="Trazado 4206" d="M908.762,137.473l-8.008,19.448-9.152,3.432-9.151,35.463-8.009-65.206-9.152,26.311-9.152-2.288-8.008,1.144-8.008,27.455-9.151-2.288-9.152-8.008-9.153-38.9L805.8,167.217l-9.152-2.288-10.3,6.864-8.008-3.432-8.007-41.183-9.153,26.311-8.008-32.031-9.152,45.759-17.16,16.016-8.007,13.728-9.153,3.432-9.152-11.44-8.008-59.487L683.4,185.52l-8.008-4.576-17.16,9.152-9.152-2.288-9.152-12.584-8.008-29.743-9.152,29.743L614.762,190.1l-9.152,6.864L597.6,174.08l-9.152,1.144-9.152-9.152-8.008-29.743L562.138,161.5l-8.007,8.008-9.153-12.584-9.152-4.576-8.008,21.735-8.008,11.44-9.152-21.735-8.007,19.448L493.5,191.24l-9.152-3.432-8.008-29.743-8.008,5.72-10.3-10.3L450.03,132.9l-9.153,25.167-8.008,11.44-8.008,30.887-9.152,10.3-9.152,20.592-8.007-11.44-9.153-9.152-8.008,13.728-9.152-5.72-9.152,24.023-8.008,10.3-8.007-4.576-9.153,1.144L328.767,226.7l-8.008,14.872-8.008,11.44-18.3,2.288L285.3,257.59l-8.009-11.44L268.137,237l-9.152,12.584-8.008,12.584-8.008,5.72-10.3-6.864-8.007-8.008-8.009,2.288L207.506,237l-9.152,10.3-8.008,17.16-9.152-1.144-8.007,4.576-9.153-1.144-8.008,8.008-9.152-21.736-8.008,13.728-9.152-4.576-9.151,3.432-6.865-3.432L103.4,265.6,95.4,255.3,78.237,367.412,69.087,359.4l-9.153-1.144-8.008,3.432H43.918l-9.152,9.152-9.152-26.311-8.007,18.3L9.6,357.116.447,352.54V388h1298.41V44.811L1289.7,71.123l-9.152,1.144-9.152,42.327h-8.007l-8.009-13.728-10.3-1.144-8.008-12.584-8.008,20.592-9.152,5.72-9.152-12.584-8.007,28.6-18.3-17.16-8.008-44.615L1167.3,107.73l-8.008-8.008-9.151-12.584-8.009,43.471h-9.152l-8.008-5.72-9.152-34.319-8.008,27.455-9.151,10.3-8.009-14.872-9.152,2.288-9.152-17.16-8.008,29.743-9.152-50.335-8.007,20.592-9.152,48.047-8.009-1.144-9.152-11.44-17.16-11.44L995.7,85.994l-9.152,38.9L977.4,122.6l-8.008,8.008-8.008-29.743-9.152-10.3-9.152-1.144L933.93,40.235,925.922,18.5Z" transform="translate(-0.447 -18.5)" fill="none"></path></clipPath><linearGradient id="linear-gradient" x1="0.5" x2="0.5" y2="1" gradientUnits="objectBoundingBox"><stop offset="0" stop-color="#fff"></stop><stop offset="1" stop-color="#fff" stop-opacity="0.349"></stop></linearGradient><clipPath id="clip-path-2"><rect id="Rect&#xE1;ngulo_182" data-name="Rect&#xE1;ngulo 182" width="1300.002" height="391.239" fill="none"></rect></clipPath></defs><g id="stat02" transform="translate(-290 -5270.5)"><text id="_40K" data-name="40K" transform="translate(290 5283.5)" fill="#fff" font-size="14" font-family="ProximaNova-Regular, Proxima Nova" opacity="0.5"><tspan x="0" y="0">40K</tspan></text><text id="_24K" data-name="24K" transform="translate(290 5478.754)" fill="#fff" font-size="14" font-family="ProximaNova-Regular, Proxima Nova" opacity="0.5"><tspan x="0" y="0">24K</tspan></text><text id="_32K" data-name="32K" transform="translate(290 5381.5)" fill="#fff" font-size="14" font-family="ProximaNova-Regular, Proxima Nova" opacity="0.5"><tspan x="0" y="0">32K</tspan></text><text id="_16K" data-name="16K" transform="translate(290 5576.5)" fill="#fff" font-size="14" font-family="ProximaNova-Regular, Proxima Nova" opacity="0.5"><tspan x="0" y="0">16K</tspan></text><text id="_8K" data-name="8K" transform="translate(290 5674.374)" fill="#fff" font-size="14" font-family="ProximaNova-Regular, Proxima Nova" opacity="0.5"><tspan x="0" y="0">8K</tspan></text><text id="dic_2021" data-name="dic 2021" transform="translate(330.512 5692.374)" fill="#fff" font-size="14" font-family="ProximaNova-Regular, Proxima Nova" opacity="0.5"><tspan x="-25.76" y="0">dic 2021</tspan></text><text id="ene_2022" data-name="ene 2022" transform="translate(590.5 5692.374)" fill="#fff" font-size="14" font-family="ProximaNova-Regular, Proxima Nova" opacity="0.5"><tspan x="-30.177" y="0">ene 2022</tspan></text><text id="feb" transform="translate(849.488 5692.374)" fill="#fff" font-size="14" font-family="ProximaNova-Regular, Proxima Nova" opacity="0.5"><tspan x="-9.947" y="0">feb</tspan></text><text id="mar" transform="translate(1109.5 5692.374)" fill="#fff" font-size="14" font-family="ProximaNova-Regular, Proxima Nova" opacity="0.5"><tspan x="-11.655" y="0">mar</tspan></text><text id="abr" transform="translate(1369.488 5692.374)" fill="#fff" font-size="14" font-family="ProximaNova-Regular, Proxima Nova" opacity="0.5"><tspan x="-10.024" y="0">abr</tspan></text><text id="may" transform="translate(1628.488 5692.374)" fill="#fff" font-size="14" font-family="ProximaNova-Regular, Proxima Nova" opacity="0.5"><tspan x="-12.775" y="0">may</tspan></text><line id="L&#xED;nea_53" data-name="L&#xED;nea 53" x1="1298.41" transform="translate(330.512 5668.5)" fill="none" stroke="rgba(255,255,255,0.35)" stroke-miterlimit="10" stroke-width="1"></line><line id="L&#xED;nea_54" data-name="L&#xED;nea 54" x1="1298.41" transform="translate(330.512 5571.5)" fill="none" stroke="rgba(255,255,255,0.35)" stroke-miterlimit="10" stroke-width="1"></line><line id="L&#xED;nea_55" data-name="L&#xED;nea 55" x1="1298.41" transform="translate(330.512 5473.5)" fill="none" stroke="rgba(255,255,255,0.35)" stroke-miterlimit="10" stroke-width="1"></line><line id="L&#xED;nea_56" data-name="L&#xED;nea 56" x1="1298.41" transform="translate(330.512 5376.5)" fill="none" stroke="rgba(255,255,255,0.35)" stroke-miterlimit="10" stroke-width="1"></line><line id="L&#xED;nea_57" data-name="L&#xED;nea 57" x1="1298.41" transform="translate(330.512 5278.5)" fill="none" stroke="rgba(255,255,255,0.35)" stroke-miterlimit="10" stroke-width="1"></line><g id="Grupo_594" data-name="Grupo 594" transform="translate(0 98)" opacity="0.5"><line id="L&#xED;nea_58" data-name="L&#xED;nea 58" y2="390.874" transform="translate(330.5 5180.5)" fill="none" stroke="#fff" stroke-miterlimit="10" stroke-width="1" stroke-dasharray="5 5"></line><line id="L&#xED;nea_60" data-name="L&#xED;nea 60" y2="390.874" transform="translate(590.5 5180.5)" fill="none" stroke="#fff" stroke-miterlimit="10" stroke-width="1" stroke-dasharray="5 5"></line><line id="L&#xED;nea_61" data-name="L&#xED;nea 61" y2="390.874" transform="translate(849.5 5180.5)" fill="none" stroke="#fff" stroke-miterlimit="10" stroke-width="1" stroke-dasharray="5 5"></line><line id="L&#xED;nea_62" data-name="L&#xED;nea 62" y2="390.874" transform="translate(1109.5 5180.5)" fill="none" stroke="#fff" stroke-miterlimit="10" stroke-width="1" stroke-dasharray="5 5"></line><line id="L&#xED;nea_63" data-name="L&#xED;nea 63" y2="390.874" transform="translate(1369.5 5180.5)" fill="none" stroke="#fff" stroke-miterlimit="10" stroke-width="1" stroke-dasharray="5 5"></line><line id="L&#xED;nea_59" data-name="L&#xED;nea 59" y2="390.874" transform="translate(1628.5 5180.5)" fill="none" stroke="#fff" stroke-miterlimit="10" stroke-width="1" stroke-dasharray="5 5"></line></g><g id="Grupo_595" data-name="Grupo 595" transform="translate(330.511 5299.298)" clip-path="url(#clip-path)"><rect id="Rect&#xE1;ngulo_181" data-name="Rect&#xE1;ngulo 181" width="1299.554" height="370.647" transform="translate(-0.511 -0.572)" opacity="0.55" fill="url(#linear-gradient)"></rect></g><g id="Grupo_596" data-name="Grupo 596" transform="translate(330 5278.135)" clip-path="url(#clip-path-2)"><path id="Trazado_4207" data-name="Trazado 4207" d="M.447,352.54,9.6,357.116l8.008,5.72,8.008-18.3,9.152,26.311,9.152-9.152h8.008l8.008-3.432,9.152,1.144,9.152,8.008L95.4,255.3l8.008,10.3,10.3-3.432,6.864,3.432,9.152-3.432,9.152,4.576,8.008-13.728,9.152,21.736,8.008-8.008,9.152,1.144,8.008-4.576,9.152,1.144,8.008-17.16,9.152-10.3,9.152,18.3,8.008-2.288,8.008,8.008,10.3,6.864,8.008-5.72,8.008-12.584L268.137,237l9.152,9.152,8.008,11.44,9.152-2.288,18.3-2.288,8.008-11.44,8.008-14.872,9.152,22.879,9.152-1.144,8.008,4.576,8.008-10.3,9.152-24.023,9.152,5.72,8.008-13.728,9.152,9.152,8.008,11.44,9.152-20.592,9.152-10.3,8.008-30.887,8.008-11.44,9.152-25.167,8.008,20.592,10.3,10.3,8.008-5.72,8.008,29.743,9.152,3.432,9.152-8.008,8.008-19.448,9.152,21.735,8.008-11.44,8.008-21.735,9.152,4.576L554.13,169.5l8.008-8.008,9.152-25.167,8.008,29.743,9.152,9.152,9.152-1.144,8.008,22.879,9.152-6.864,8.008-14.872,9.152-29.743,8.008,29.743,9.152,12.584,9.152,2.288,17.16-9.152,8.008,4.576,9.152-56.055,8.008,59.487,9.152,11.44,9.152-3.432,8.008-13.728,17.16-16.016,9.152-45.759,8.008,32.031,9.152-26.311,8.008,41.183,8.008,3.432,10.3-6.864,9.152,2.288,6.864-33.175,9.152,38.9,9.152,8.008,9.152,2.288,8.008-27.455,8.008-1.144,9.152,2.288,9.152-26.311,8.008,65.206,9.152-35.463,9.152-3.432,8.008-19.448L925.922,18.5l8.008,21.735,9.152,49.191,9.152,1.144,9.152,10.3,8.008,29.743L977.4,122.6l9.152,2.288,9.152-38.9,8.008,36.607,17.16,11.44,9.152,11.44,8.008,1.144,9.152-48.047,8.008-20.592,9.152,50.335,8.008-29.743,9.152,17.16,9.152-2.288,8.008,14.872,9.152-10.3,8.008-27.455,9.152,34.319,8.008,5.72h9.152l8.008-43.471,9.152,12.584,8.008,8.008,9.152-40.039,8.008,44.615,18.3,17.16,8.008-28.6,9.152,12.584,9.152-5.72,8.008-20.592,8.008,12.584,10.3,1.144,8.008,13.728h8.008l9.152-42.327,9.152-1.144,9.152-26.311" transform="translate(0.064 2.664)" fill="none" stroke="#fff" stroke-linejoin="round" stroke-miterlimit="10" stroke-width="2.5"></path></g></g></svg>