<svg xmlns="http://www.w3.org/2000/svg" xmlns:xlink="http://www.w3.org/1999/xlink" width="335" height="350" viewBox="0 0 335 350"><defs><clipPath id="clip-path"><rect id="Rect&#xE1;ngulo_183" data-name="Rect&#xE1;ngulo 183" width="276.006" height="314.254" fill="none" stroke="rgba(160,160,181,0.35)" stroke-width="1"></rect></clipPath><clipPath id="clip-path-2"><path id="Trazado_4210" data-name="Trazado 4210" d="M106,58.594l-.242,49.847-.484,63.934-.726-7.585-.242,21.673-.242,5.418-.484,6.5-.968-8.669-.726,20.589-.968,10.836-.726-10.836-.726-1.084-.726-8.669-.484,8.669-.484,3.251H96.8l-.726,7.585-.484-7.585-.968,14.087-.726-4.335-.242,2.167-.726-2.167-.484,4.335-.726-9.753-.484,3.251-.484,8.669-.484,1.084-.484,5.418-.484,1.084-.726-3.251-.242-5.418-1.21-10.836-.242,6.5-.484,11.92-.242,6.5-1.21-5.418-.726-6.5-.968,3.251-.242,9.753h-.726l-.484,6.5-.484,1.084-1.21-10.836-.968,6.5-.726-2.167-.242-14.087-1.21-11.92-.726,1.084-.242,5.418-1.21,6.5-1.21-5.418L72.6,210.3l-.242-13-.242-11.92-.968,8.669-.484-7.585-.726,1.084-.968-37.927-.484,2.167-.726-15.171-.484,17.338-.484,8.669-.726,30.342-.484,15.171-.484,5.418h-.484l-.484,4.335-1.21-8.669v11.92l-.484,11.92-.484,7.585-.242-7.585-.242-11.92-.726,16.255L60.5,244.98l-.484-15.171V186.463l-.968,6.5-.242,20.589-.726-5.418h-.242l-1.21,7.585-.242,4.335-.726,4.335-.484,6.5-.726-5.418-.484,2.167-.484,4.335L53,227.642l-.484,4.335-.726-2.167-.484,5.418-1.21-9.753-.968-4.335-.968,7.585-.726,3.251-.968-11.92-.484,5.418L45.5,260.151l-.484,1.084-.726-11.92L43.8,211.387l-.968-21.673-1.21,9.753-.968-3.251-.484,8.669-.484-5.418-.726-28.174L38,197.3l-.484-2.167-.726-39.011-.726-36.844-.726-4.335-.726,39.011-.484,10.836-.968-1.084-.968-22.756L31.7,110.609l-1.21,58.516-.484,10.836-.968,48.764L27.831,203.8l-.484,21.673-.484-30.342L25.9,220.056l-.726,32.509L24.2,250.4l-.726,20.589-.726,9.753-1.21-1.084-.484-3.251-.726,5.418L19.6,299.161l-1.694,8.669L16.7,303.5l-.968,4.335-1.452,1.084-1.21-6.5-.726,2.167-1.452,2.167-1.21-4.335-.968,3.251-1.694-4.335-.968,4.335-.968-3.251-1.936,5.418-.968-2.167-.726,2.167H0v4.335H275.892V197.3l-.726-8.669-.242-8.669h-.484l-.726,2.167v4.335l-.484,5.418-.968-15.171-.484,6.5-1.21-22.756-.242,9.753-.726,8.669-.484-6.5-.484,7.585-.484-7.585-.242-18.422-.484-18.422-.484,17.338-.484-16.255-.726,5.418L265,171.293l-.726-2.167h-.484l-.484-5.418-.242-8.669-.242,26.007-.242-5.418-.484-6.5-.242-9.753-.242-9.753-.484,4.335-.242,8.669-.242,17.338L259.92,150.7l-.484,15.171-.242,13-.242,6.5-.242,1.084-.484-2.167-.484-4.335-.242-10.836V158.289l-.726,20.589-.242-11.92-.242-9.753h-.484l-.484,2.167-.242,4.335-.484,9.753-.242-5.418-.242-5.418-.484,6.5-.484,13-.242-10.836-.242-9.753-.726,13h-.484l-.242-1.084-.484-3.251-.484-9.753-.484-7.585-.484,27.091-.242-33.593V127.947l-.484-6.5-.242-4.335-.726,13-.968,15.171-.484,20.589-.484-7.585-.242-6.5-.242-9.753-.484-5.418-.726,35.76-.484,10.836-.484,7.585-.726-8.669-.968,1.084-.484-19.505-.968,40.094-1.21-28.174-.726,5.418-.242-17.338-.484-5.418-.726,18.422h-.968l-.242,15.171-.726,6.5-.726-6.5-.484-29.258h-.726l-.242,6.5L231.6,185.38,231.12,210.3l-.484-8.669-.968-61.767-.968,42.262-.968-3.251h-.726l-.484-7.585-.726-15.171-.484,21.673-.726-19.505-.242-6.5-.726-3.251-.484,18.422-.484-9.753-.484-3.251-.484,9.753-.726,27.091-.242-10.836-.726-6.5-.242,18.422-.968,3.251-.484-15.171-.968,5.418-.484,9.753-1.21-5.418-.484-13-.968,2.167-.968,10.836-.484,7.585-.242,6.5L212,176.711l-.484,26.007-.726-5.418h-.484l-.484-13-.484,26.007-.726-13-.484,1.084-.484,6.5-.484-32.509-.484,21.673-.726-2.167-.484,5.418-.484-1.084-.484-9.753-.726,5.418-.242-28.175-.484,9.753-.242,5.418-.484-13-.726,4.335-.242,4.335-.726-1.084V162.623l-.484-14.087-.484-6.5-.484,4.335-.242,30.342-.726,11.92-.726-2.167L197,172.376l-.484-34.676-.484,5.418-.484-1.084-.726-14.087-.242,19.505-.726,13-.484-1.084-.726-18.422-.484,2.167-.484,5.418-.484,1.084-.484,16.255-.726-2.167-.242-24.924-.726,21.673-.484-36.844-.968,34.676-.484,14.087-.726,19.505-.484,3.251-.726-54.182-.484,44.429-.484,3.251-.484-6.5-.726-1.084-.242,24.924-.726,1.084-.484-9.753-.484,9.753L180.3,203.8l-.242,39.011-.726,2.167-.484-11.92-.484,7.585-.484-4.335-.484-15.171-.242-5.418-.484-4.335-.484,16.255-.726-14.087-.242-9.753-.484-5.418-.726,5.418-.484-8.669-.484-7.585-.484-4.335-.726,7.585-.484,2.167-.968-11.92-.484-8.669-.726,7.585-.484,4.335-.484,8.669-.484,17.338-.726-5.418-.484-22.756-.968-17.338-1.21,6.5v17.338l-.242,21.673L163.6,190.8l-.484-14.087-.242-6.5-1.21-8.669-.242,20.589-.968,2.167-.242,7.585-.484,6.5L159,192.965l-.484-2.167-.484,10.836-.484,3.251-1.694-8.669-.484-19.505-.726-9.753-.242-10.836-.484,13-.242,9.753-.726,7.585V197.3l-.242,7.585-.726-3.251v-5.418l-.242-8.669-.242-5.418-.484-4.335-.726,26.007-.242,10.836-1.694-5.418-.484-2.167-.242-5.418-.242-3.251-.484,7.585-.726,7.585-.242,6.5-.726,5.418-.484-6.5-.484-6.5-.242-13-.484-15.171-.242,17.338-.242,8.669-.484,7.585-.484-2.167-.726,2.167-.484,3.251-.484-17.338-.242-11.92-.242-4.335-.726,2.167-.242,18.422-.242,5.418-.726,8.669-.726-5.418-.242-5.418-.484-4.335-.726,1.084-.484,3.251-.242,4.335-.242-14.087-.484-5.418-.242-4.335-.484,23.84-.242-5.418-.242-9.753-.242-3.251-.484-3.251L131.9,210.3l-.484,11.92-.484,10.836-.242-4.335-.484-11.92-.484-6.5-.484-4.335-.484,5.418-.242,5.418-.242,6.5-.726-8.669-.726-9.753-.242-3.251-.242,7.585-.242,6.5-.726-10.836-.484-3.251-.968,5.418-.726-5.418-.242-2.167-.484,11.92-.484-9.753-.726-23.84-1.21-10.836-.484-21.673-.484,13-.242,17.338-.242,5.418-.484-2.167-.242-10.836-.242-13-.484-11.92-.242-9.753-.242,21.673-.242,22.756-.726,4.335L115.2,184.3l-.242-21.673-.726-3.251-.484-14.087-.484,29.258-.242,26.007-.242,23.84-.484-9.753-.242-6.5-.242-13-.242-30.342-.484-41.178-.242-9.753-.242-5.418-.726-3.251-.242-36.844-.726-4.335-.484-33.593-.484,13-.484,20.589-.242-10.836-.242-10.836-.242-11.92-.484-11.92Z" transform="translate(0 -18.5)" fill="none" stroke="#707070" stroke-width="1"></path></clipPath><linearGradient id="linear-gradient" x1="0.5" x2="0.5" y2="1" gradientUnits="objectBoundingBox"><stop offset="0" stop-color="#39b5cb"></stop><stop offset="1" stop-color="#2e72ff" stop-opacity="0.349"></stop></linearGradient></defs><g id="stat03mov" transform="translate(8871 5270.459)"><text id="_210K" data-name="210K" transform="translate(-8871 -5178.296)" fill="#fff" font-size="14" font-family="ProximaNova-Regular, Proxima Nova" opacity="0.5"><tspan x="0" y="0">210K</tspan></text><text id="_280K" data-name="280K" transform="translate(-8871 -5257.459)" fill="#fff" font-size="14" font-family="ProximaNova-Regular, Proxima Nova" opacity="0.5"><tspan x="0" y="0">280K</tspan></text><text id="_140K" data-name="140K" transform="translate(-8871 -5100.086)" fill="#fff" font-size="14" font-family="ProximaNova-Regular, Proxima Nova" opacity="0.5"><tspan x="0" y="0">140K</tspan></text><text id="_70K" data-name="70K" transform="translate(-8871 -5021.663)" fill="#fff" font-size="14" font-family="ProximaNova-Regular, Proxima Nova" opacity="0.5"><tspan x="0" y="0">70K</tspan></text><text id="_0K" data-name="0K" transform="translate(-8871 -4943.43)" fill="#fff" font-size="14" font-family="ProximaNova-Regular, Proxima Nova" opacity="0.5"><tspan x="0" y="0">0K</tspan></text><text id="jan_20" data-name="jan 20" transform="translate(-8830 -4923.459)" fill="#fff" font-size="14" font-family="ProximaNova-Regular, Proxima Nova" opacity="0.5"><tspan x="-19.327" y="0">jan 20</tspan></text><text id="jun_21" data-name="jun 21" transform="translate(-8554 -4923.459)" fill="#fff" font-size="14" font-family="ProximaNova-Regular, Proxima Nova" opacity="0.5"><tspan x="-17.584" y="0">jun 21</tspan></text><g id="Grupo_699" data-name="Grupo 699" transform="translate(-8830.992 -5262.684)"><g id="Grupo_608" data-name="Grupo 608" transform="translate(0)"><g id="Grupo_609" data-name="Grupo 609"><g id="Grupo_608-2" data-name="Grupo 608" clip-path="url(#clip-path)"><line id="L&#xED;nea_64" data-name="L&#xED;nea 64" x1="275.892" transform="translate(0 314.116)" fill="none" stroke="rgba(160,160,181,0.35)" stroke-width="1"></line><line id="L&#xED;nea_65" data-name="L&#xED;nea 65" x1="275.892" transform="translate(0 235.212)" fill="none" stroke="rgba(160,160,181,0.35)" stroke-width="1"></line><line id="L&#xED;nea_66" data-name="L&#xED;nea 66" x1="275.892" transform="translate(0 157.257)" fill="none" stroke="rgba(160,160,181,0.35)" stroke-width="1"></line><line id="L&#xED;nea_67" data-name="L&#xED;nea 67" x1="275.892" transform="translate(0 79.303)" fill="none" stroke="rgba(160,160,181,0.35)" stroke-width="1"></line><line id="L&#xED;nea_68" data-name="L&#xED;nea 68" x1="275.892" transform="translate(0 0.399)" fill="none" stroke="rgba(160,160,181,0.35)" stroke-width="1"></line></g></g><g id="Grupo_611" data-name="Grupo 611" transform="translate(0 20.047)"><g id="Grupo_610" data-name="Grupo 610" clip-path="url(#clip-path-2)"><rect id="Rect&#xE1;ngulo_184" data-name="Rect&#xE1;ngulo 184" width="275.892" height="294.749" transform="translate(0 -0.542)" opacity="0.55" fill="url(#linear-gradient)"></rect></g></g><path id="Trazado_4211" data-name="Trazado 4211" d="M0,307.831H1.452l.726-2.167.968,2.167,1.936-5.418.968,3.251.968-4.335,1.694,4.335.968-3.251,1.21,4.335,1.452-2.167.726-2.167,1.21,6.5,1.452-1.084L16.7,303.5l1.21,4.335,1.694-8.669.726-17.338.726-5.418.484,3.251,1.21,1.084.726-9.753L24.2,250.4l.968,2.167.726-32.509.968-24.924.484,30.342.484-21.673,1.21,24.924.968-48.764.484-10.836,1.21-58.516.484,30.342.968,22.756.968,1.084.484-10.836.726-39.011.726,4.335.726,36.844.726,39.011L38,197.3l.968-26.007.726,28.174.484,5.418.484-8.669.968,3.251,1.21-9.753.968,21.673.484,37.927.726,11.92.484-1.084.484-34.676.484-5.418.968,11.92.726-3.251.968-7.585.968,4.335,1.21,9.753.484-5.418.726,2.167L53,227.642l.484,4.335.484-4.335.484-2.167.726,5.418.484-6.5.726-4.335.242-4.335,1.21-7.585h.242l.726,5.418.242-20.589.968-6.5v43.345L60.5,244.98l.242-7.585.726-16.255.242,11.92.242,7.585.484-7.585.484-11.92V209.22l1.21,8.669.484-4.335H65.1l.484-5.418.484-15.171.726-30.342.484-8.669.484-17.338.726,15.171.484-2.167.968,37.927.726-1.084.484,7.585.968-8.669.242,11.92.242,13,.968,15.171,1.21,5.418,1.21-6.5.242-5.418.726-1.084,1.21,11.92.242,14.087.726,2.167.968-6.5,1.21,10.836.484-1.084.484-6.5h.726l.242-9.753.968-3.251.726,6.5,1.21,5.418.242-6.5.484-11.92.242-6.5,1.21,10.836.242,5.418.726,3.251.484-1.084.484-5.418.484-1.084.484-8.669.484-3.251.726,9.753.484-4.335.726,2.167.242-2.167.726,4.335.968-14.087.484,7.585.726-7.585h.968l.484-3.251.484-8.669.726,8.669.726,1.084.726,10.836.968-10.836.726-20.589.968,8.669.484-6.5.242-5.418.242-21.673.726,7.585.484-63.934L106,58.594l.242-40.094.484,11.92.242,11.92.242,10.836.242,10.836.484-20.589.484-13,.484,33.593.726,4.335.242,36.844.726,3.251.242,5.418.242,9.753.484,41.178.242,30.342.242,13,.242,6.5.484,9.753.242-23.84.242-26.007.484-29.258.484,14.087.726,3.251L115.2,184.3l.484-2.167.726-4.335.242-22.756.242-21.673.242,9.753.484,11.92.242,13,.242,10.836.484,2.167.242-5.418.242-17.338.484-13,.484,21.673,1.21,10.836.726,23.84.484,9.753.484-11.92.242,2.167.726,5.418.968-5.418.484,3.251.726,10.836.242-6.5.242-7.585.242,3.251.726,9.753.726,8.669.242-6.5.242-5.418.484-5.418.484,4.335.484,6.5.484,11.92.242,4.335.484-10.836.484-11.92.484-16.255.484,3.251.242,3.251.242,9.753.242,5.418.484-23.84.242,4.335.484,5.418.242,14.087.242-4.335.484-3.251.726-1.084.484,4.335.242,5.418.726,5.418.726-8.669.242-5.418.242-18.422.726-2.167.242,4.335.242,11.92.484,17.338.484-3.251.726-2.167.484,2.167.484-7.585.242-8.669.242-17.338L144,199.467l.242,13,.484,6.5.484,6.5.726-5.418.242-6.5.726-7.585.484-7.585.242,3.251.242,5.418.484,2.167,1.694,5.418.242-10.836.726-26.007.484,4.335.242,5.418.242,8.669v5.418l.726,3.251.242-7.585V186.463l.726-7.585.242-9.753.484-13,.242,10.836.726,9.753.484,19.505,1.694,8.669.484-3.251.484-10.836.484,2.167.726,5.418.484-6.5.242-7.585.968-2.167.242-20.589,1.21,8.669.242,6.5L163.6,190.8l.484,19.505.242-21.673V171.293l1.21-6.5.968,17.338.484,22.756.726,5.418.484-17.338.484-8.669.484-4.335.726-7.585.484,8.669.968,11.92.484-2.167.726-7.585.484,4.335.484,7.585.484,8.669.726-5.418.484,5.418.242,9.753.726,14.087.484-16.255.484,4.335.242,5.418.484,15.171.484,4.335.484-7.585.484,11.92.726-2.167L180.3,203.8l.726,3.251.484-9.753.484,9.753.726-1.084.242-24.924.726,1.084.484,6.5.484-3.251.484-44.429.726,54.182.484-3.251.726-19.505.484-14.087.968-34.676.484,36.844.726-21.673.242,24.924.726,2.167.484-16.255.484-1.084.484-5.418.484-2.167.726,18.422.484,1.084.726-13,.242-19.505.726,14.087.484,1.084.484-5.418L197,172.376l.484,14.087.726,2.167.726-11.92.242-30.342.484-4.335.484,6.5.484,14.087V173.46l.726,1.084.242-4.335.726-4.335.484,13,.242-5.418.484-9.753.242,28.175.726-5.418.484,9.753.484,1.084.484-5.418.726,2.167.484-21.673.484,32.509.484-6.5.484-1.084.726,13,.484-26.007.484,13h.484l.726,5.418L212,176.711l.484,27.091.242-6.5.484-7.585.968-10.836.968-2.167.484,13,1.21,5.418.484-9.753.968-5.418.484,15.171.968-3.251.242-18.422.726,6.5.242,10.836.726-27.091.484-9.753.484,3.251.484,9.753.484-18.422.726,3.251.242,6.5.726,19.505.484-21.673.726,15.171.484,7.585h.726l.968,3.251.968-42.262.968,61.767.484,8.669.484-24.924.726-16.255.242-6.5h.726l.484,29.258.726,6.5.726-6.5.242-15.171h.968l.726-18.422.484,5.418.242,17.338.726-5.418,1.21,28.174.968-40.094.484,19.505.968-1.084.726,8.669.484-7.585.484-10.836.726-35.76.484,5.418.242,9.753.242,6.5.484,7.585.484-20.589.968-15.171.726-13,.242,4.335.484,6.5v18.422l.242,33.593.484-27.091.484,7.585.484,9.753.484,3.251.242,1.084h.484l.726-13,.242,9.753.242,10.836.484-13,.484-6.5.242,5.418.242,5.418.484-9.753.242-4.335.484-2.167h.484l.242,9.753.242,11.92.726-20.589v10.836l.242,10.836.484,4.335.484,2.167.242-1.084.242-6.5.242-13,.484-15.171.726,29.258.242-17.338.242-8.669.484-4.335.242,9.753.242,9.753.484,6.5.242,5.418.242-26.007.242,8.669.484,5.418h.484l.726,2.167.726-29.258.726-5.418.484,16.255.484-17.338.484,18.422.242,18.422.484,7.585.484-7.585.484,6.5.726-8.669.242-9.753,1.21,22.756.484-6.5.968,15.171.484-5.418v-4.335l.726-2.167h.484l.242,8.669.726,8.669" transform="translate(0 1.547)" fill="none" stroke="#01d9ff" stroke-linejoin="round" stroke-miterlimit="10" stroke-width="1.5"></path></g><g id="Grupo_619" data-name="Grupo 619" transform="translate(0.492 0.42)"><line id="L&#xED;nea_69" data-name="L&#xED;nea 69" y2="313.834" transform="translate(0)" fill="none" stroke="rgba(160,160,181,0.35)" stroke-width="1" stroke-dasharray="5 5"></line><line id="L&#xED;nea_138" data-name="L&#xED;nea 138" y2="313.834" transform="translate(92.167)" fill="none" stroke="rgba(160,160,181,0.35)" stroke-width="1" stroke-dasharray="5 5"></line><line id="L&#xED;nea_139" data-name="L&#xED;nea 139" y2="313.834" transform="translate(184.333)" fill="none" stroke="rgba(160,160,181,0.35)" stroke-width="1" stroke-dasharray="5 5"></line><line id="L&#xED;nea_86" data-name="L&#xED;nea 86" y2="313.834" transform="translate(276.5)" fill="none" stroke="rgba(160,160,181,0.35)" stroke-width="1" stroke-dasharray="5 5"></line></g></g></g></svg>