<svg xmlns="http://www.w3.org/2000/svg" width="200" height="30.206" viewBox="0 0 200 30.206"><g id="weewoo-neg" transform="translate(-0.003 0.002)"><g id="c" transform="translate(0.003 -0.002)"><g id="Grupo_212" data-name="Grupo 212" transform="translate(0)"><path id="Trazado_385" data-name="Trazado 385" d="M31.733,1.928c-.024-.024-.048-.044-.08-.072-.1-.1-.213-.2-.326-.293A6.923,6.923,0,0,0,26.161.035a8.035,8.035,0,0,0-4.848,2.292c-.032.032-.064.068-.1.1-.125.129-.245.257-.358.394L17.2,7.183,13.542,2.825A7.7,7.7,0,0,0,2.828,1.792a1.148,1.148,0,0,0-.169.145,7.689,7.689,0,0,0-.884,10.722L15.906,29.575c.04.048.088.1.137.145a1.636,1.636,0,0,0,2.2.113,1.51,1.51,0,0,0,.249-.257L21.309,26.2h0l.064-.08L25.1,21.656h0l2.119-2.529h0l3.618-4.338,3.88-4.619h0l4.41-5.258c.06-.072.125-.145.2-.221.024-.02.048-.044.068-.064a4.736,4.736,0,0,1,2.866-1.363,3.724,3.724,0,0,1,2.766.792c.036.032.072.064.113.1h0l.1.1a1.188,1.188,0,0,0,.1.1,4.418,4.418,0,0,1,.559,6.215l-12.9,15.446-2.292-2.73-.032-.036-1.889-2.251L26.68,23.529l1.451,1.729,3.6,4.354a1.676,1.676,0,0,0,2.34.2,1.666,1.666,0,0,0,.289-.314l3.964-4.772L48.409,12.654a7.7,7.7,0,0,0-.888-10.73c-.024-.024-.048-.044-.08-.072-.1-.1-.213-.2-.322-.293A6.976,6.976,0,0,0,41.945.035,8.035,8.035,0,0,0,37.1,2.326c-.032.032-.064.068-.1.1-.125.129-.245.257-.358.394L34.15,5.792h0l-6.416,7.675-.016-.016-2.629,3.132h0l-2.123,2.529h0l-2.7,3.212L17.2,25.957,15.359,23.8l-.414-.5-.008.008-1.568-1.837-9.1-10.9a4.414,4.414,0,0,1,6.774-5.66L21.389,17.233l2.123-2.525-4.193-5,4.032-4.8c.06-.072.125-.145.2-.221.024-.02.048-.044.068-.064a4.736,4.736,0,0,1,2.866-1.363,3.724,3.724,0,0,1,2.766.792c.036.032.072.064.113.1h0l.1.1a1.188,1.188,0,0,0,.1.1,4.375,4.375,0,0,1,1.242,1.684L33.044,3.38a7.618,7.618,0,0,0-1.311-1.455" transform="translate(-0.003 0.002)" fill="#39b5cb" fill-rule="evenodd"></path><path id="Trazado_386" data-name="Trazado 386" d="M161.86,23.664h4.093l3.5,11.944L173.31,23.6h3.4L180.6,35.608l3.562-11.944h3.992l-5.709,17.552h-3.562L174.99,29.309l-3.928,11.908H167.5l-5.64-17.552Z" transform="translate(-96.79 -14.111)" fill="#fff"></path><g id="Grupo_210" data-name="Grupo 210" transform="translate(93.143 9.191)"><path id="Trazado_387" data-name="Trazado 387" d="M231.694,32v-.064c0-4.981,3.53-9.074,8.511-9.074,5.544,0,8.346,4.354,8.346,9.371,0,.362-.032.728-.064,1.122h-12.8a4.863,4.863,0,0,0,5.013,4.422,6.311,6.311,0,0,0,4.716-2.078l2.344,2.078a8.816,8.816,0,0,1-7.128,3.264A8.69,8.69,0,0,1,231.69,32Zm12.9-1.286c-.265-2.573-1.781-4.587-4.422-4.587-2.44,0-4.157,1.881-4.519,4.587Z" transform="translate(-231.69 -22.86)" fill="#fff"></path><path id="Trazado_388" data-name="Trazado 388" d="M281.254,32v-.064c0-4.981,3.53-9.074,8.511-9.074,5.544,0,8.346,4.354,8.346,9.371,0,.362-.032.728-.064,1.122h-12.8a4.863,4.863,0,0,0,5.013,4.422,6.311,6.311,0,0,0,4.716-2.078l2.344,2.078a8.816,8.816,0,0,1-7.128,3.264A8.69,8.69,0,0,1,281.25,32Zm12.9-1.286c-.265-2.573-1.781-4.587-4.422-4.587-2.44,0-4.157,1.881-4.519,4.587Z" transform="translate(-261.326 -22.86)" fill="#fff"></path></g><path id="Trazado_389" data-name="Trazado 389" d="M327.55,23.664h4.093l3.5,11.944L339,23.6h3.4l3.892,12.008,3.562-11.944h3.992l-5.709,17.552h-3.562L340.68,29.309l-3.924,11.908h-3.562l-5.64-17.552Z" transform="translate(-195.869 -14.111)" fill="#39b5cb"></path><g id="Grupo_211" data-name="Grupo 211" transform="translate(159.754 9.191)"><path id="Trazado_390" data-name="Trazado 390" d="M397.38,32.03v-.064a9.289,9.289,0,0,1,18.573-.064v.064a9.109,9.109,0,0,1-9.335,9.074,8.97,8.97,0,0,1-9.238-9.005Zm14.581,0v-.064a5.384,5.384,0,0,0-5.343-5.608,5.271,5.271,0,0,0-5.246,5.544v.064a5.4,5.4,0,0,0,5.311,5.608A5.335,5.335,0,0,0,411.961,32.03Z" transform="translate(-397.38 -22.86)" fill="#39b5cb"></path><path id="Trazado_391" data-name="Trazado 391" d="M451.29,32.03v-.064a9.289,9.289,0,0,1,18.573-.064v.064a9.108,9.108,0,0,1-9.335,9.074,8.97,8.97,0,0,1-9.238-9.005Zm14.581,0v-.064a5.384,5.384,0,0,0-5.343-5.608,5.271,5.271,0,0,0-5.246,5.544v.064a5.4,5.4,0,0,0,5.311,5.608A5.335,5.335,0,0,0,465.871,32.03Z" transform="translate(-429.617 -22.86)" fill="#39b5cb"></path></g></g></g></g></svg>